<svg xmlns="http://www.w3.org/2000/svg" xmlns:xlink="http://www.w3.org/1999/xlink" viewBox="0 0 64 64"><defs><style>.cls-1{isolation:isolate;}.cls-2{fill:url(#linear-gradient);}.cls-3,.cls-4{mix-blend-mode:multiply;}.cls-3{fill:url(#linear-gradient-2);}.cls-4{fill:url(#linear-gradient-3);}.cls-5{fill:#f5ffff;}</style><linearGradient id="linear-gradient" x1="32" y1="62.96" x2="32" y2="0.71" gradientUnits="userSpaceOnUse"><stop offset="0" stop-color="#6828f8"/><stop offset="1" stop-color="#6cf"/></linearGradient><linearGradient id="linear-gradient-2" x1="37.53" y1="13.98" x2="64.8" y2="41.25" gradientUnits="userSpaceOnUse"><stop offset="0" stop-color="gray"/><stop offset="1" stop-color="#fff"/></linearGradient><linearGradient id="linear-gradient-3" x1="25.04" y1="33" x2="50.37" y2="58.33" xlink:href="#linear-gradient-2"/></defs><title>AboutI</title><g class="cls-1"><g id="Layer_2" data-name="Layer 2"><g id="Layer_1-2" data-name="Layer 1"><path class="cls-2" d="M64,31.91v.18c0,.32,0,.64,0,1a31.27,31.27,0,0,1-1.77,9.57c-.05.18-.12.35-.18.52-.33.88-.69,1.75-1.1,2.6-.18.39-.38.78-.58,1.16-.45.85-.93,1.67-1.44,2.47h0l-.43.65A32.08,32.08,0,0,1,43.6,61.84q-1.35.52-2.76.93a32.06,32.06,0,0,1-6.31,1.13c-.84.07-1.68.1-2.53.1h0A32,32,0,0,1,0,32.09v-.18A32,32,0,0,1,32,0h0A32,32,0,0,1,64,31.91Z"/><path class="cls-3" d="M64,33.05a31.27,31.27,0,0,1-1.77,9.57c-.05.18-.12.35-.18.52-.33.88-.69,1.75-1.1,2.6L33,17.8l8.25-8.45Z"/><path class="cls-4" d="M60.35,46.9c-.45.85-.93,1.67-1.44,2.47h0l-.43.65A32.08,32.08,0,0,1,43.6,61.84q-1.35.52-2.76.93a32.06,32.06,0,0,1-6.31,1.13L25.63,55l3.5-12.93-7-7,16.63-9.75Z"/><path class="cls-5" d="M22.13,35.07l-1.15-2a38.24,38.24,0,0,1,6.65-4.76,27.3,27.3,0,0,1,8.63-3.47c2.1-.36,3.34.53,3.29,2.66A27.25,27.25,0,0,1,38.76,33c-1,4.2-2.17,8.36-3.25,12.54a7.46,7.46,0,0,0-.24,1.62c-.05,1,.25,1.29,1.2,1A13.74,13.74,0,0,0,39.21,47a22.86,22.86,0,0,0,2.29-1.57l1.41,1.86a31.76,31.76,0,0,1-6.15,5,24.76,24.76,0,0,1-7.21,3.23c-3.34.8-5.17-.67-4.83-4.1a61.69,61.69,0,0,1,1.31-7c.75-3.41,1.6-6.8,2.36-10.21a6.61,6.61,0,0,0,0-1.66,6.76,6.76,0,0,0-1.5.3C25.3,33.59,23.77,34.32,22.13,35.07Z"/><path class="cls-5" d="M36.11,18.68c-3.68,0-5.48-2.63-4.35-6.3,1.19-3.86,4.69-4.91,7.9-4,2.43.73,3.5,3.44,2.55,6.11A6.47,6.47,0,0,1,36.11,18.68Z"/></g></g></g></svg>