<svg xmlns="http://www.w3.org/2000/svg" xmlns:xlink="http://www.w3.org/1999/xlink" viewBox="0 0 64 64"><defs><style>.cls-1{isolation:isolate;}.cls-2{fill:url(#linear-gradient);}.cls-3{mix-blend-mode:multiply;fill:url(#linear-gradient-2);}.cls-4{fill:#f5ffff;}</style><linearGradient id="linear-gradient" x1="32" y1="62.96" x2="32" y2="0.71" gradientUnits="userSpaceOnUse"><stop offset="0" stop-color="#6828f8"/><stop offset="1" stop-color="#6cf"/></linearGradient><linearGradient id="linear-gradient-2" x1="26.71" y1="28.72" x2="53.33" y2="55.34" gradientUnits="userSpaceOnUse"><stop offset="0" stop-color="gray"/><stop offset="1" stop-color="#fff"/></linearGradient></defs><title>AddField</title><g class="cls-1"><g id="Layer_2" data-name="Layer 2"><g id="Layer_1-2" data-name="Layer 1"><path class="cls-2" d="M64,31.91v.18a31.63,31.63,0,0,1-1.79,10.53A30.77,30.77,0,0,1,60.8,46a31.14,31.14,0,0,1-2,3.51A32.09,32.09,0,0,1,48.05,59.7,31.17,31.17,0,0,1,43.2,62c-.78.29-1.56.55-2.36.78A32.21,32.21,0,0,1,32,64h0A32,32,0,0,1,0,32.09v-.18A32,32,0,0,1,32,0h0A32,32,0,0,1,64,31.91Z"/><path class="cls-3" d="M60.8,46a31.14,31.14,0,0,1-2,3.51A32.09,32.09,0,0,1,48.05,59.7,31.17,31.17,0,0,1,43.2,62L18.13,36.92l11.42-5.23,5.12-11.81Z"/><path class="cls-4" d="M34.33,36.46v.9c0,2.92,0,5.85,0,8.77,0,1-.33,1.45-1.34,1.66a6,6,0,0,1-1,.11c-1.92,0-2.4-.47-2.4-2.35v-9c-.32,0-.59,0-.85,0H20c-1.23,0-1.74-.44-1.84-1.67a7.5,7.5,0,0,1,0-1.64c.15-1.09.61-1.46,1.71-1.46h9.66V22c0-1.13.4-1.61,1.52-1.73a8.24,8.24,0,0,1,1.79,0c1.08.12,1.47.6,1.47,1.7,0,2.92,0,5.85,0,8.77v.9H44c1.11,0,1.56.35,1.71,1.44a6.51,6.51,0,0,1,0,1.87c-.14,1.08-.62,1.45-1.71,1.46H34.33Z"/></g></g></g></svg>