<svg xmlns="http://www.w3.org/2000/svg" xmlns:xlink="http://www.w3.org/1999/xlink" viewBox="0 0 64 64"><defs><style>.cls-1{isolation:isolate;}.cls-2{fill:url(#linear-gradient);}.cls-3{mix-blend-mode:multiply;fill:url(#linear-gradient-2);}.cls-4{fill:#f5ffff;}</style><linearGradient id="linear-gradient" x1="32" y1="1.04" x2="32" y2="63.29" gradientTransform="translate(64 64) rotate(180)" gradientUnits="userSpaceOnUse"><stop offset="0" stop-color="#6828f8"/><stop offset="1" stop-color="#6cf"/></linearGradient><linearGradient id="linear-gradient-2" x1="20.78" y1="21.25" x2="54.41" y2="54.88" gradientUnits="userSpaceOnUse"><stop offset="0" stop-color="gray"/><stop offset="1" stop-color="#fff"/></linearGradient></defs><title>AddP</title><g class="cls-1"><g id="Layer_2" data-name="Layer 2"><g id="Layer_1-2" data-name="Layer 1"><path class="cls-2" d="M0,32.09v-.18a31.68,31.68,0,0,1,.64-6.36,31.09,31.09,0,0,1,1.15-4.18A30.11,30.11,0,0,1,3,18.48,32.07,32.07,0,0,1,23.16,1.23,30.57,30.57,0,0,1,26.34.5,32,32,0,0,1,32,0h0A32,32,0,0,1,64,31.91v.18A32,32,0,0,1,32,64h0A32,32,0,0,1,0,32.09Z"/><path class="cls-3" d="M63.36,38.45a31.09,31.09,0,0,1-1.15,4.18A30.11,30.11,0,0,1,61,45.52a32.07,32.07,0,0,1-20.2,17.25,30.57,30.57,0,0,1-3.18.73L22,47.83,22,44l-12-12L20,22.07,34.19,36.29h4.43L31.32,29,42.44,17.53Z"/><path class="cls-4" d="M22,47.83h31.8c0-1.48.09-2.91,0-4.32-.17-2.12-1.6-3.41-3.33-4.31A25.78,25.78,0,0,0,32,36.7a21.71,21.71,0,0,0-7.65,3.09A4.76,4.76,0,0,0,22,43.35C21.91,44.82,22,46.3,22,47.83Zm23.8-23.78A7.92,7.92,0,1,0,37.87,32,8,8,0,0,0,45.78,24.05ZM16,28H10.06V32h6v5.9h4v-6h5.89v-4H20V22.07H16Z"/><path class="cls-4" d="M22,47.83c0-1.53-.07-3,0-4.48a4.76,4.76,0,0,1,2.36-3.56A21.71,21.71,0,0,1,32,36.7a25.78,25.78,0,0,1,18.42,2.5c1.73.9,3.16,2.19,3.33,4.31.11,1.41,0,2.84,0,4.32Z"/><path class="cls-4" d="M45.78,24.05a7.92,7.92,0,1,1-7.92-8A7.92,7.92,0,0,1,45.78,24.05Z"/><path class="cls-4" d="M16,28V22.07h4v5.87h5.9v4H20v6H16V32h-6V28Z"/></g></g></g></svg>