<svg xmlns="http://www.w3.org/2000/svg" xmlns:xlink="http://www.w3.org/1999/xlink" viewBox="0 0 64 64"><defs><style>.cls-1{isolation:isolate;}.cls-2{fill:url(#linear-gradient);}.cls-3{mix-blend-mode:multiply;fill:url(#linear-gradient-2);}.cls-4{fill:#f5ffff;}</style><linearGradient id="linear-gradient" x1="32" y1="62.96" x2="32" y2="0.71" gradientUnits="userSpaceOnUse"><stop offset="0" stop-color="#6828f8"/><stop offset="1" stop-color="#6cf"/></linearGradient><linearGradient id="linear-gradient-2" x1="19.63" y1="21.58" x2="53.28" y2="55.23" gradientUnits="userSpaceOnUse"><stop offset="0" stop-color="gray"/><stop offset="1" stop-color="#fff"/></linearGradient></defs><title>AddTodayI</title><g class="cls-1"><g id="Layer_2" data-name="Layer 2"><g id="Layer_1-2" data-name="Layer 1"><path class="cls-2" d="M64,31.91v.6a31.81,31.81,0,0,1-1.77,10.05.14.14,0,0,1,0,.06A32,32,0,0,1,40.84,62.77h-.05A31.85,31.85,0,0,1,32,64h0a32.85,32.85,0,0,1-3.6-.2A31.94,31.94,0,0,1,0,32.09v-.18A32,32,0,0,1,32,0h0A32,32,0,0,1,64,31.91Z"/><path class="cls-3" d="M64,32.51a31.81,31.81,0,0,1-1.77,10.05.14.14,0,0,1,0,.06A32,32,0,0,1,40.84,62.77h-.05A31.85,31.85,0,0,1,32,64h0a32.85,32.85,0,0,1-3.6-.2L15.49,50.89,18.13,22l30.71-4.61Z"/><path class="cls-4" d="M49.81,20.07a4,4,0,0,0-4-4H43.86v-4h-4V16H24V12.07H20v4H18.08a4,4,0,0,0-4,4q0,13.87,0,27.74a3.94,3.94,0,0,0,4,4q13.88,0,27.74,0a4,4,0,0,0,4-4Q49.83,33.94,49.81,20.07ZM45.76,47.79H18.13V26.05H45.76Z"/><path class="cls-4" d="M23,37.43l1.94-2,4.1,4.12L38.63,30l2.11,2.11L29.23,43.64Z"/></g></g></g></svg>