<svg xmlns="http://www.w3.org/2000/svg" xmlns:xlink="http://www.w3.org/1999/xlink" viewBox="0 0 64 64"><defs><style>.cls-1{isolation:isolate;}.cls-2{fill:url(#linear-gradient);}.cls-3{mix-blend-mode:multiply;fill:url(#linear-gradient-2);}.cls-4{fill:#f5ffff;}</style><linearGradient id="linear-gradient" x1="32" y1="62.96" x2="32" y2="0.71" gradientUnits="userSpaceOnUse"><stop offset="0" stop-color="#6828f8"/><stop offset="1" stop-color="#6cf"/></linearGradient><linearGradient id="linear-gradient-2" x1="22.06" y1="22.08" x2="54.63" y2="54.65" gradientUnits="userSpaceOnUse"><stop offset="0" stop-color="gray"/><stop offset="1" stop-color="#fff"/></linearGradient></defs><title>Cancel</title><g class="cls-1"><g id="Layer_2" data-name="Layer 2"><g id="Layer_1-2" data-name="Layer 1"><path class="cls-2" d="M64,31.91v.18a31.91,31.91,0,0,1-1.23,8.79c-.17.59-.35,1.17-.56,1.74a30.12,30.12,0,0,1-1.78,4.12,32.1,32.1,0,0,1-19.59,16h0A32.21,32.21,0,0,1,32,64h0A32,32,0,0,1,0,32.09v-.18A32,32,0,0,1,32,0h0A32,32,0,0,1,64,31.91Z"/><path class="cls-3" d="M62.77,40.88c-.17.59-.35,1.17-.56,1.74a30.12,30.12,0,0,1-1.78,4.12,32.1,32.1,0,0,1-19.59,16L21.65,43.57l9-12.33-6-11.48-.1-.18.24.24,2.61,2.61,4.8,4.8.46.46,9.52-7.39.3.29Z"/><path class="cls-4" d="M31.88,36.3,27,41.88c-.39.46-.78.91-1.18,1.36a3.07,3.07,0,0,1-4.24.38,3,3,0,0,1-.13-4.15c2-2.27,4-4.5,5.95-6.75l.64-.73-.87-1q-2.76-3.16-5.53-6.32a3.27,3.27,0,0,1-.93-2.45,2.54,2.54,0,0,1,1.76-2.45,3,3,0,0,1,3.29.81c1.85,2.11,3.67,4.23,5.51,6.34l.6.67,1.93-2.2,4.08-4.7a3,3,0,0,1,4.28-.38,2.81,2.81,0,0,1,.11,4.14L35.72,32l4.38,5c.76.86,1.53,1.71,2.28,2.59a2.82,2.82,0,0,1-.16,4A3,3,0,0,1,38,43.33c-1.89-2.13-3.74-4.29-5.61-6.44C32.26,36.7,32.09,36.53,31.88,36.3Z"/></g></g></g></svg>