<svg xmlns="http://www.w3.org/2000/svg" xmlns:xlink="http://www.w3.org/1999/xlink" viewBox="0 0 64 64"><defs><style>.cls-1{isolation:isolate;}.cls-2{fill:url(#linear-gradient);}.cls-3{mix-blend-mode:multiply;fill:url(#linear-gradient-2);}.cls-4{fill:#f5ffff;}</style><linearGradient id="linear-gradient" x1="32" y1="62.96" x2="32" y2="0.71" gradientUnits="userSpaceOnUse"><stop offset="0" stop-color="#6828f8"/><stop offset="1" stop-color="#6cf"/></linearGradient><linearGradient id="linear-gradient-2" x1="20.35" y1="18.85" x2="54.99" y2="53.49" gradientUnits="userSpaceOnUse"><stop offset="0" stop-color="gray"/><stop offset="1" stop-color="#fff"/></linearGradient></defs><title>Delete</title><g class="cls-1"><g id="Layer_2" data-name="Layer 2"><g id="Layer_1-2" data-name="Layer 1"><path class="cls-2" d="M64,31.91v.18c0,.5,0,1,0,1.49a31.12,31.12,0,0,1-1.75,9c-.05.15-.1.3-.16.45A31.91,31.91,0,0,1,36.33,63.71,32.58,32.58,0,0,1,32,64h0A32,32,0,0,1,0,32.09v-.18A32,32,0,0,1,32,0h0A32,32,0,0,1,64,31.91Z"/><path class="cls-3" d="M64,33.58a31.12,31.12,0,0,1-1.75,9c-.05.15-.1.3-.16.45A31.91,31.91,0,0,1,36.33,63.71l-15.5-15.5L32.11,34l-14-14,28-4.24Z"/><path class="cls-4" d="M20.07,22h23.8V45.44a4.17,4.17,0,0,1-3,4.24,4.69,4.69,0,0,1-1.18.13H24.24A4,4,0,0,1,20,45.7c0-7.72,0-15.44,0-23.16C20,22.39,20.05,22.24,20.07,22Z"/><path class="cls-4" d="M18.09,20V16h1.14a27.93,27.93,0,0,1,3.3,0,4.14,4.14,0,0,0,4.11-1.62,1.18,1.18,0,0,1,.84-.35c3,0,5.94,0,8.91,0a1.47,1.47,0,0,1,1,.48A3.82,3.82,0,0,0,41,16.05c1.56-.14,3.14,0,4.75,0V20Z"/></g></g></g></svg>