<svg xmlns="http://www.w3.org/2000/svg" xmlns:xlink="http://www.w3.org/1999/xlink" viewBox="0 0 64 64"><defs><style>.cls-1{isolation:isolate;}.cls-2{fill:url(#linear-gradient);}.cls-3{mix-blend-mode:multiply;fill:url(#linear-gradient-2);}.cls-4{fill:#f5ffff;}</style><linearGradient id="linear-gradient" x1="32" y1="62.96" x2="32" y2="0.71" gradientUnits="userSpaceOnUse"><stop offset="0" stop-color="#6828f8"/><stop offset="1" stop-color="#6cf"/></linearGradient><linearGradient id="linear-gradient-2" x1="13.58" y1="39.64" x2="61.5" y2="39.64" gradientUnits="userSpaceOnUse"><stop offset="0" stop-color="gray"/><stop offset="1" stop-color="#fff"/></linearGradient></defs><title>Export</title><g class="cls-1"><g id="Layer_2" data-name="Layer 2"><g id="Layer_1-2" data-name="Layer 1"><path class="cls-2" d="M64,31.91v.18a31.43,31.43,0,0,1-.57,6,30,30,0,0,1-1.22,4.51c-.21.63-.45,1.24-.71,1.84q-.16.42-.36.84A32.07,32.07,0,0,1,43.73,61.79c-.94.37-1.91.7-2.89,1a31.82,31.82,0,0,1-6.05,1.11Q33.41,64,32,64t-2.49-.09A32,32,0,0,1,0,32.09v-.18a32,32,0,0,1,64,0Z"/><path class="cls-3" d="M61.5,44.46q-.16.42-.36.84A32.07,32.07,0,0,1,43.73,61.79c-.94.37-1.91.7-2.89,1a31.82,31.82,0,0,1-6.05,1.11Q33.41,64,32,64t-2.49-.09L13.58,47.69l1.44-.2,1.5-9.37,7.11-4.37L34.15,44.27l-6.64,1.52,10.18-1.38-9.47-9.47,3-.88-9.17-9.71,10.24-9.08Z"/><path class="cls-4" d="M47,38.84l-6.61-5.08c1.38,0,2.6,0,3.81,0,.14,0,.29.13.43.22,2,1.36,4,2.7,6,4.07a2.57,2.57,0,0,1,1.19,2.85c-.39,1.9-.7,3.82-1,5.73a2.45,2.45,0,0,1-2.43,2.24c-.21,0-.41,0-.62,0H16.29a3.84,3.84,0,0,1-1.47-.19,2.34,2.34,0,0,1-1.53-1.83q-.55-3-1.1-6a2.47,2.47,0,0,1,1.13-2.7c2-1.36,4-2.75,6-4.13a1.41,1.41,0,0,1,.86-.28c1.08,0,2.17,0,3.43,0l-6.72,5.17h3c1.24,0,2.49,0,3.74,0a.82.82,0,0,1,.91.65c.42,1.22.89,2.42,1.32,3.64a.54.54,0,0,0,.61.45c3.66,0,7.33,0,11,0a.6.6,0,0,0,.66-.49c.4-1.16.85-2.3,1.23-3.47a1,1,0,0,1,1.1-.78c2,0,3.91,0,5.87,0A1.06,1.06,0,0,0,47,38.84Z"/><path class="cls-4" d="M42.28,24.73c-2.05,0-4,0-5.92,0-.48,0-.57.13-.57.59,0,3,0,6,0,9,0,.43-.05.61-.56.6-2.16,0-4.32,0-6.49,0-.42,0-.5-.13-.5-.52,0-3,0-6.06,0-9.09,0-.5-.14-.61-.62-.6-1.94,0-3.89,0-5.84,0,0-.23.15-.29.25-.38l9.55-9c.23-.22.38-.36.69-.06L42,24.46A2.89,2.89,0,0,1,42.28,24.73Z"/></g></g></g></svg>