<svg xmlns="http://www.w3.org/2000/svg" xmlns:xlink="http://www.w3.org/1999/xlink" viewBox="0 0 64 64"><defs><style>.cls-1{isolation:isolate;}.cls-2{fill:url(#linear-gradient);}.cls-3{mix-blend-mode:multiply;fill:url(#linear-gradient-2);}.cls-4{fill:#f5ffff;}</style><linearGradient id="linear-gradient" x1="32" y1="1.04" x2="32" y2="63.29" gradientTransform="translate(64 64) rotate(180)" gradientUnits="userSpaceOnUse"><stop offset="0" stop-color="#6828f8"/><stop offset="1" stop-color="#6cf"/></linearGradient><linearGradient id="linear-gradient-2" x1="20.58" y1="22.55" x2="51.7" y2="53.67" gradientUnits="userSpaceOnUse"><stop offset="0" stop-color="gray"/><stop offset="1" stop-color="#fff"/></linearGradient></defs><title>HistoryI</title><g class="cls-1"><g id="Layer_2" data-name="Layer 2"><g id="Layer_1-2" data-name="Layer 1"><path class="cls-2" d="M0,32.09v-.18c0-.18,0-.36,0-.54a31.44,31.44,0,0,1,1.78-10A31.95,31.95,0,0,1,32,0a31,31,0,0,1,3.49.19A31.95,31.95,0,0,1,64,31.91v.18a32,32,0,0,1-64,0Z"/><path class="cls-3" d="M64,32.63a31.44,31.44,0,0,1-1.78,10A31.95,31.95,0,0,1,32,64a31,31,0,0,1-3.49-.19L15.38,50.68l2.26-25.75,31.07-7.58Z"/><path class="cls-4" d="M49.89,20.3a4,4,0,0,0-4.11-4.14c-.42,0-.85,0-1.27,0s-.59-.16-.58-.6c0-1,0-2,0-2.93,0-.38-.09-.52-.5-.51-1,0-2,0-3,0-.46,0-.52.17-.51.56,0,1,0,2,0,3,0,.35-.09.48-.46.48q-7.45,0-14.92,0c-.42,0-.51-.15-.49-.53,0-.62,0-1.24,0-1.87,0-1.63,0-1.63-1.61-1.63-.77,0-1.82-.27-2.24.12s-.13,1.51-.14,2.31c0,1.59,0,1.68-1.6,1.57a4.27,4.27,0,0,0-4.39,4.41q.12,13.5,0,27A4.34,4.34,0,0,0,18.52,52c4.47-.13,9,0,13.42,0s9.2,0,13.79,0a4,4,0,0,0,4.16-4.17Q49.91,34,49.89,20.3Zm-4,26.93c0,.55-.14.71-.71.71q-13.18,0-26.39,0c-.56,0-.71-.15-.7-.71q0-10.23,0-20.47c0-.52.13-.67.66-.67,4.42,0,8.85,0,13.27,0s8.75,0,13.12,0c.59,0,.75.15.75.74Q45.89,37,45.92,47.23Z"/><path class="cls-4" d="M32,35.09c0,1.45,0,2.9,0,4.35,0,.45-.1.59-.58.58-2.95,0-5.9,0-8.85,0-.41,0-.56-.1-.56-.54,0-3,0-5.95,0-8.92,0-.42.12-.55.55-.55,3,0,5.95,0,8.92,0,.39,0,.51.11.5.5C32,32,32,33.56,32,35.09Z"/></g></g></g></svg>