<svg xmlns="http://www.w3.org/2000/svg" xmlns:xlink="http://www.w3.org/1999/xlink" viewBox="0 0 64 64"><defs><style>.cls-1{isolation:isolate;}.cls-2{fill:url(#linear-gradient);}.cls-3{mix-blend-mode:multiply;fill:url(#linear-gradient-2);}.cls-4{fill:#f5ffff;}</style><linearGradient id="linear-gradient" x1="32" y1="62.96" x2="32" y2="0.71" gradientUnits="userSpaceOnUse"><stop offset="0" stop-color="#6828f8"/><stop offset="1" stop-color="#6cf"/></linearGradient><linearGradient id="linear-gradient-2" x1="13.97" y1="39.63" x2="62.37" y2="39.63" gradientUnits="userSpaceOnUse"><stop offset="0" stop-color="gray"/><stop offset="1" stop-color="#fff"/></linearGradient></defs><title>Import</title><g class="cls-1"><g id="Layer_2" data-name="Layer 2"><g id="Layer_1-2" data-name="Layer 1"><path class="cls-2" d="M64,31.91v.18a31.43,31.43,0,0,1-.57,6,30.89,30.89,0,0,1-1.06,4l-.16.46a27.2,27.2,0,0,1-1.07,2.68A32.07,32.07,0,0,1,43.73,61.79c-.94.37-1.91.7-2.89,1a31.82,31.82,0,0,1-6.05,1.11Q33.41,64,32,64c-.82,0-1.64,0-2.44-.09A32,32,0,0,1,0,32.09v-.18a32,32,0,0,1,64,0Z"/><path class="cls-3" d="M62.37,42.16l-.16.46a27.2,27.2,0,0,1-1.07,2.68A32.07,32.07,0,0,1,43.73,61.79c-.94.37-1.91.7-2.89,1a31.82,31.82,0,0,1-6.05,1.11Q33.41,64,32,64c-.82,0-1.64,0-2.44-.09L14,48.32l1.28-9.75,8.38-4.76,10.31,10.3,8.26,1.71L21.92,25.53l11,.82,2.78-11.09Z"/><path class="cls-4" d="M47.08,39l-6.72-5.15h3.76a.86.86,0,0,1,.49.25c2,1.34,4,2.68,6,4A2.57,2.57,0,0,1,51.79,41c-.39,1.89-.7,3.8-1,5.7a2.45,2.45,0,0,1-2.43,2.23c-.21,0-.42,0-.62,0H16.29a6.49,6.49,0,0,1-.88,0,2.37,2.37,0,0,1-2.13-2L12.2,40.94a2.51,2.51,0,0,1,1.17-2.79c2-1.33,4-2.71,6-4.08a1.49,1.49,0,0,1,.86-.27c1.08,0,2.17,0,3.43,0L16.91,39h3.81c1,0,2,0,2.93,0a.82.82,0,0,1,.91.65c.42,1.22.89,2.41,1.31,3.63a.56.56,0,0,0,.62.44c3.66,0,7.33,0,11,0a.58.58,0,0,0,.65-.49c.41-1.17.86-2.34,1.26-3.51a1,1,0,0,1,1-.72c2,0,4,0,5.93,0Z"/><path class="cls-4" d="M42.21,25.4,41,26.56l-8.6,8.07c-.21.19-.33.43-.68.1q-4.87-4.62-9.78-9.2s-.07-.09-.18-.23h.6c1.75,0,3.5,0,5.25,0,.52,0,.7-.09.69-.67,0-3,0-5.95,0-8.93,0-.48.11-.63.61-.62,2.14,0,4.29,0,6.43,0,.42,0,.52.12.52.53,0,3,0,5.95,0,8.93,0,.66.2.77.8.76,1.66,0,3.33,0,5,0A.93.93,0,0,1,42.21,25.4Z"/></g></g></g></svg>