<svg xmlns="http://www.w3.org/2000/svg" xmlns:xlink="http://www.w3.org/1999/xlink" viewBox="0 0 513.04 515.38"><defs><style>.cls-1{isolation:isolate;}.cls-2{fill:url(#linear-gradient);}.cls-3,.cls-4,.cls-6{mix-blend-mode:multiply;}.cls-3{fill:url(#linear-gradient-2);}.cls-4{fill:url(#linear-gradient-3);}.cls-5{fill:#f5ffff;}.cls-6{fill:url(#linear-gradient-4);}</style><linearGradient id="linear-gradient" x1="256.52" y1="8.35" x2="256.52" y2="508.73" gradientUnits="userSpaceOnUse"><stop offset="0" stop-color="#6cf"/><stop offset="1" stop-color="#6828f8"/></linearGradient><linearGradient id="linear-gradient-2" x1="371.18" y1="267.77" x2="595.01" y2="491.6" gradientUnits="userSpaceOnUse"><stop offset="0" stop-color="gray"/><stop offset="1" stop-color="#fff" stop-opacity="0"/></linearGradient><linearGradient id="linear-gradient-3" x1="86.88" y1="201.08" x2="441.4" y2="555.6" gradientUnits="userSpaceOnUse"><stop offset="0" stop-color="#7f7f7f"/><stop offset="1" stop-color="#fff"/></linearGradient><linearGradient id="linear-gradient-4" x1="242.96" y1="95.72" x2="511.45" y2="364.21" gradientUnits="userSpaceOnUse"><stop offset="0" stop-color="gray"/><stop offset="1" stop-color="#fff"/></linearGradient></defs><title>launcher_foreground</title><g class="cls-1"><g id="Layer_2" data-name="Layer 2"><g id="Layer_1-2" data-name="Layer 1"><path class="cls-2" d="M513,52V462.47a52,52,0,0,1-47.76,51.83c-1.4.11-2.81.17-4.24.17H52a52,52,0,0,1-52-52V52A52,52,0,0,1,52,0H461A52,52,0,0,1,513,52Z"/><path class="cls-3" d="M513,198.07v264.4a52,52,0,0,1-47.76,51.83l-66.13-.24L297.39,412,286,401.23l-.76-111.42,13-17.36L351.86,270l12.4-.57,15.59-76.56,0-.07,27.87-20.06-5.41-6.87,28.4-57.17,7.49,8.14Z"/><polygon class="cls-4" points="400.46 515.38 286.01 401.23 298.21 272.44 118.44 108.69 87.83 164.05 94.71 175.03 81.56 229.1 71.23 218.45 82.51 336.66 261.44 514.47 400.46 515.38"/><path class="cls-5" d="M405.45,102.36a33.24,33.24,0,0,0-20.86,13.18,40.27,40.27,0,0,0-5,10.82,36.48,36.48,0,0,0-.53,13.52,32.7,32.7,0,0,0,23.32,26,38.43,38.43,0,0,0,13.84.79,33.17,33.17,0,0,0,26.24-23.51c.78-2.7.88-3.46.88-8.56,0-4.73-.1-6-.72-8.12C438,109.82,421.88,99.4,405.45,102.36Z"/><path class="cls-5" d="M96.12,102.69a32.73,32.73,0,0,0-25.84,39.46,32.39,32.39,0,0,0,17.55,21.9c5.24,2.57,7.51,3.06,14.1,3.06s8.85-.49,14.1-3.06a32.6,32.6,0,0,0,17.71-22.56,41.07,41.07,0,0,0,.2-12.5c-2.66-12.89-11.68-22.56-24.24-25.84A39.9,39.9,0,0,0,96.12,102.69Z"/><path class="cls-5" d="M402.17,172.77a27.62,27.62,0,0,0-20.4,15.42,35.43,35.43,0,0,0-1.9,4.6c-.4,1.25-4.07,19-8.17,39.47l-7.44,37.16-7.22.2c-3.93.13-17,.23-28.92.26-24.73,0-24.67,0-29.91,2.57a16.28,16.28,0,0,0-5.91,4.34A24,24,0,0,0,286,287.34l-.76,2.47V399l.76,2.24A16.66,16.66,0,0,0,297.39,412a22.55,22.55,0,0,0,10.33-.33c5.44-1.88,9.25-6,11-11.88.52-1.64.59-5.39.65-42.65l.14-40.84,37.61-.1,37.62-.1,2.62-.76a34.56,34.56,0,0,0,9.74-4.6,36.27,36.27,0,0,0,7.41-8.06c3.09-5.13,2.79-3.91,12.46-52.19,9-44.79,9-44.89,9-49.17a27,27,0,0,0-4.52-16,29.34,29.34,0,0,0-16.6-11.84,26.25,26.25,0,0,0-7.18-.79C405.12,172.67,402.63,172.7,402.17,172.77Z"/><path class="cls-5" d="M100.13,173.39A29.45,29.45,0,0,0,85,181.45c-5.87,5.85-8.46,12.76-8.07,21.54.16,3.45,1.28,9.47,8.89,47.52,4.78,24,9,44.53,9.41,45.71a34.49,34.49,0,0,0,5.67,10.2,29.18,29.18,0,0,0,14.46,9.24l2.63.75,37.81.1,37.78.13V357c0,39.17,0,40.45.66,42.92a23.38,23.38,0,0,0,1.54,4.24,18.53,18.53,0,0,0,7.44,7c2.59,1.25,2.69,1.29,6.92,1.38,3.68.1,4.56,0,6.33-.55a16.7,16.7,0,0,0,10.66-11l.72-2.31v-53.6c0-60.61.2-56-2.62-61.6-3.15-6.21-7.32-9.9-13.68-12.07l-2.72-.95-30-.23c-16.47-.13-30-.33-30.08-.4s-3.44-16.7-7.51-37-7.64-37.92-8-39.24a40.16,40.16,0,0,0-5.35-10.39,27.35,27.35,0,0,0-14.17-9.4A40,40,0,0,0,100.13,173.39Z"/><path class="cls-5" d="M449.69,210.82a12.48,12.48,0,0,0-8.63,9.27c-.26,1.09-3.67,17.66-7.57,36.83-7.84,38.51-8.1,39.86-9.25,42.92q-6.64,17.76-25,22.26c-1.9.46-5.8.56-29.91.73-27.58.19-27.71.19-29.48.92a12.75,12.75,0,0,0-5.31,3.75,15.14,15.14,0,0,0-1.94,14.6,13.47,13.47,0,0,0,6.72,6.77l2,.79H371.5c30.08,0,30.17,0,33.52-.75,17.81-4,32.2-15.33,40.47-32,3.51-7,3.87-8.52,12.79-51.86,7.41-36.08,8.2-40.29,8.07-42.36a12.54,12.54,0,0,0-7.28-10.88,9.89,9.89,0,0,0-5.15-1.32A15.18,15.18,0,0,0,449.69,210.82Z"/><path class="cls-5" d="M55.72,211.37a13.14,13.14,0,0,0-8.43,8.06c-1.28,3.69-1.28,3.65,7.41,46,9.32,45.39,9.74,47,14.7,55.48a59.15,59.15,0,0,0,38.53,28.32c3.08.66,4.13.69,32.37.82,21.77.07,29.65,0,31-.26a12.42,12.42,0,0,0,9.64-9.38c2-7.79-2.36-15.29-9.9-16.9-1.18-.23-9.68-.36-26.89-.36-14.89,0-26.11-.13-27.45-.33A37,37,0,0,1,101,316.81a37.66,37.66,0,0,1-11.41-14.5c-1.61-3.62-2.5-7.63-10.07-44.89-4.14-20.36-7.84-37.89-8.27-39a10.4,10.4,0,0,0-2.92-4.15c-1.87-1.91-2.46-2.3-4.39-2.89A13.66,13.66,0,0,0,55.72,211.37Z"/><polygon class="cls-6" points="269.45 61.63 289.06 81.29 294.13 81.53 390.01 177.68 379.87 192.79 364.25 269.42 352.05 270.18 247.92 165.75 247.88 127.84 223.24 103.12 269.45 61.63"/><rect class="cls-5" x="247.92" y="61.63" width="21.54" height="104.13"/><rect class="cls-5" x="247.89" y="56.88" width="21.6" height="70.9" transform="translate(351.01 -166.36) rotate(90)"/></g></g></g></svg>