<svg xmlns="http://www.w3.org/2000/svg" xmlns:xlink="http://www.w3.org/1999/xlink" viewBox="0 0 64 64"><defs><style>.cls-1{isolation:isolate;}.cls-2{fill:url(#linear-gradient);}.cls-3{mix-blend-mode:multiply;fill:url(#linear-gradient-2);}.cls-4{fill:#f5ffff;}</style><linearGradient id="linear-gradient" x1="32" y1="62.96" x2="32" y2="0.71" gradientUnits="userSpaceOnUse"><stop offset="0" stop-color="#6828f8"/><stop offset="1" stop-color="#6cf"/></linearGradient><linearGradient id="linear-gradient-2" x1="22.95" y1="27.72" x2="51.71" y2="56.49" gradientUnits="userSpaceOnUse"><stop offset="0" stop-color="gray"/><stop offset="1" stop-color="#fff"/></linearGradient></defs><title>PersonsI</title><g class="cls-1"><g id="Layer_2" data-name="Layer 2"><g id="Layer_1-2" data-name="Layer 1"><path class="cls-2" d="M64,31.91v.18a31.94,31.94,0,0,1-.44,5.3,30.41,30.41,0,0,1-1.35,5.23c-.19.55-.39,1.09-.62,1.63A32.05,32.05,0,0,1,40.84,62.77l-.21.06A32.33,32.33,0,0,1,32,64h0a32.55,32.55,0,0,1-4-.24A32,32,0,0,1,0,32.09v-.18A32,32,0,0,1,32,0h0A32,32,0,0,1,64,31.91Z"/><path class="cls-3" d="M63.56,37.39a30.41,30.41,0,0,1-1.35,5.23c-.19.55-.39,1.09-.62,1.63A32.05,32.05,0,0,1,40.84,62.77l-.21.06A32.33,32.33,0,0,1,32,64h0a32.55,32.55,0,0,1-4-.24l-18-18L28,36.39,25.57,34,20,28.39l-.27-.26,5.66-9.88L25.5,18l.33.33,3.73,3.73,5.81,5.82.66.66.2.19,0,0,7.43-9.25.29.26Z"/><path class="cls-4" d="M37.92,45.8H10.08c0-1.81-.07-3.58,0-5.35a3.78,3.78,0,0,1,1.69-2.72,18,18,0,0,1,7.62-3.3A21.6,21.6,0,0,1,35,36.88,5.1,5.1,0,0,1,37.94,42C37.84,43.24,37.92,44.49,37.92,45.8Z"/><path class="cls-4" d="M53.81,45.8H42c0-.26,0-.52,0-.78,0-1.53,0-3.05,0-4.57a7.82,7.82,0,0,0-3-5.78L38.05,34a8.93,8.93,0,0,1,.92-.1,21.57,21.57,0,0,1,12,3A9.17,9.17,0,0,1,53,38.71a3.15,3.15,0,0,1,.76,1.74C53.87,42.22,53.81,44,53.81,45.8Z"/><path class="cls-4" d="M45.82,24.14a6,6,0,1,1-5.88-6.06A6,6,0,0,1,45.82,24.14Z"/><path class="cls-4" d="M29.88,24.06A5.91,5.91,0,0,1,24,30a6,6,0,1,1,0-11.92A5.91,5.91,0,0,1,29.88,24.06Z"/></g></g></g></svg>