<svg xmlns="http://www.w3.org/2000/svg" xmlns:xlink="http://www.w3.org/1999/xlink" viewBox="0 0 64 64"><defs><style>.cls-1{isolation:isolate;}.cls-2{fill:url(#linear-gradient);}.cls-3{mix-blend-mode:multiply;fill:url(#linear-gradient-2);}.cls-4{fill:#f5ffff;}</style><linearGradient id="linear-gradient" x1="32" y1="1.04" x2="32" y2="63.29" gradientTransform="translate(64 64) rotate(180)" gradientUnits="userSpaceOnUse"><stop offset="0" stop-color="#6828f8"/><stop offset="1" stop-color="#6cf"/></linearGradient><linearGradient id="linear-gradient-2" x1="23.88" y1="30.16" x2="51.5" y2="57.78" gradientUnits="userSpaceOnUse"><stop offset="0" stop-color="gray"/><stop offset="1" stop-color="#fff"/></linearGradient></defs><title>Person</title><g class="cls-1"><g id="Layer_2" data-name="Layer 2"><g id="Layer_1-2" data-name="Layer 1"><path class="cls-2" d="M0,32.09v-.18A31.74,31.74,0,0,1,1.79,21.37c.05-.15.1-.3.16-.44a29.65,29.65,0,0,1,2.26-4.84A32,32,0,0,1,21.39,1.8q.87-.31,1.77-.57A32.28,32.28,0,0,1,31.55,0H32A32,32,0,0,1,64,31.91v.18A32,32,0,0,1,32,64h0A32,32,0,0,1,0,32.09Z"/><path class="cls-3" d="M62.05,43.07a29.65,29.65,0,0,1-2.26,4.84A32,32,0,0,1,42.61,62.2q-.87.31-1.77.57A32.28,32.28,0,0,1,32.45,64L16.17,47.72,31.4,40.36l3.52-1.84-9-9,10.55-12Z"/><path class="cls-4" d="M16.05,47.83c0-1.55-.09-3,0-4.54a4.79,4.79,0,0,1,2.35-3.49,21.47,21.47,0,0,1,7.65-3.1,25.75,25.75,0,0,1,18.37,2.47,9.48,9.48,0,0,1,2.22,1.74,4,4,0,0,1,1.19,3c0,1.3,0,2.6,0,3.94Z"/><path class="cls-4" d="M31.92,16.05a8,8,0,1,1-7.9,8A8,8,0,0,1,31.92,16.05Z"/></g></g></g></svg>