<svg xmlns="http://www.w3.org/2000/svg" xmlns:xlink="http://www.w3.org/1999/xlink" viewBox="0 0 64 64"><defs><style>.cls-1{isolation:isolate;}.cls-2{fill:url(#linear-gradient);}.cls-3{mix-blend-mode:multiply;fill:url(#linear-gradient-2);}.cls-4{fill:#f5ffff;}</style><linearGradient id="linear-gradient" x1="32" y1="62.96" x2="32" y2="0.71" gradientUnits="userSpaceOnUse"><stop offset="0" stop-color="#6828f8"/><stop offset="1" stop-color="#6cf"/></linearGradient><linearGradient id="linear-gradient-2" x1="10.88" y1="16.08" x2="52.04" y2="57.24" gradientUnits="userSpaceOnUse"><stop offset="0" stop-color="gray"/><stop offset="1" stop-color="#fff"/></linearGradient></defs><title>Save</title><g class="cls-1"><g id="Layer_2" data-name="Layer 2"><g id="Layer_1-2" data-name="Layer 1"><path class="cls-2" d="M64,31.91v.18c0,.68,0,1.36-.06,2a31.55,31.55,0,0,1-1.73,8.5c-.08.24-.16.47-.25.71A32.05,32.05,0,0,1,40.84,62.77q-1.22.34-2.46.6A32.71,32.71,0,0,1,32,64h0A31.94,31.94,0,0,1,0,32.09v-.18A32,32,0,0,1,32,0h0A32,32,0,0,1,64,31.91Z"/><path class="cls-3" d="M63.94,34.12a31.55,31.55,0,0,1-1.73,8.5c-.08.24-.16.47-.25.71A32.05,32.05,0,0,1,40.84,62.77q-1.22.34-2.46.6A32.71,32.71,0,0,1,32,64h0a32.05,32.05,0,0,1-9.7-1.49L12.15,52.35l1.57-39.11H39.64l10.59,7.17Z"/><path class="cls-4" d="M52.38,25.58a7,7,0,0,0-2.15-5.17q-3.37-3.36-6.73-6.74a7.18,7.18,0,0,0-5.32-2.19c-7.82,0-15.64,0-23.46,0-2.33,0-3.22.89-3.22,3.21V49.27c0,2.18.93,3.13,3.08,3.13H49.3c2.13,0,3.08-.94,3.08-3Q52.38,37.46,52.38,25.58ZM28.53,16.06c0-.84.29-1.14,1.12-1.14h4.64c.74,0,1.05.3,1.05,1q0,4,0,8.09c0,.78-.32,1.07-1.11,1.07H29.66c-.82,0-1.12-.3-1.13-1.13,0-1.34,0-2.69,0-4S28.52,17.35,28.53,16.06ZM42.14,48.93H21.78V38.81H42.14ZM49,48.71a1.68,1.68,0,0,1,0,.2h-3.3c0-.25,0-.52,0-.78V38.45c0-2.16-.95-3.11-3.1-3.11H21.4c-2.17,0-3.08.92-3.08,3.11V48.92H15v-34h3.37v.82c0,3.3,0,6.6,0,9.9a2.58,2.58,0,0,0,2.87,2.88q7.35,0,14.69,0a2.56,2.56,0,0,0,2.86-2.88c0-3.28,0-6.55,0-9.83v-.9a3.08,3.08,0,0,1,2,.88c2.43,2.4,4.88,4.8,7.24,7.28a3.45,3.45,0,0,1,.89,2.14C49,33.06,49,40.88,49,48.71Z"/></g></g></g></svg>