<svg xmlns="http://www.w3.org/2000/svg" xmlns:xlink="http://www.w3.org/1999/xlink" viewBox="0 0 64 64"><defs><style>.cls-1{isolation:isolate;}.cls-2{fill:url(#linear-gradient);}.cls-3{mix-blend-mode:multiply;fill:url(#linear-gradient-2);}.cls-4{fill:#f5ffff;}</style><linearGradient id="linear-gradient" x1="32" y1="62.96" x2="32" y2="0.71" gradientUnits="userSpaceOnUse"><stop offset="0" stop-color="#6828f8"/><stop offset="1" stop-color="#6cf"/></linearGradient><linearGradient id="linear-gradient-2" x1="22.53" y1="22.49" x2="53.02" y2="52.98" gradientUnits="userSpaceOnUse"><stop offset="0" stop-color="gray"/><stop offset="1" stop-color="#fff"/></linearGradient></defs><title>SearchI</title><g class="cls-1"><g id="Layer_2" data-name="Layer 2"><g id="Layer_1-2" data-name="Layer 1"><path class="cls-2" d="M64,31.91v.18a31.63,31.63,0,0,1-1.79,10.53c-.11.32-.22.63-.34.94a31.72,31.72,0,0,1-2.23,4.62,32.1,32.1,0,0,1-16,13.66c-.91.35-1.83.66-2.77.93A32.21,32.21,0,0,1,32,64h0A32,32,0,0,1,0,32.09v-.18A32,32,0,0,1,32,0h0A32,32,0,0,1,64,31.91Z"/><path class="cls-3" d="M61.87,43.56a31.72,31.72,0,0,1-2.23,4.62,32.1,32.1,0,0,1-16,13.66l-26-26-1-8.29L22,17.64l12.22-1.76Z"/><path class="cls-4" d="M49,46,40.9,37.91c-.76-.77-1.4-1.68-2.75-1.42-.57.11-.8-.51-.42-1a12.37,12.37,0,0,0,2.64-6.56,12.8,12.8,0,0,0-12.79-14.3,12.6,12.6,0,0,0-8.94,3.54A12.92,12.92,0,0,0,35.56,37.69c.42-.35.9-.15,1,.42a5.24,5.24,0,0,1,0,1,.9.9,0,0,0,.3.73Q41.46,44.4,46.06,49c.27.28.42.3.7,0,.72-.76,1.45-1.52,2.23-2.22C49.37,46.47,49.29,46.28,49,46ZM27.62,36.52a8.95,8.95,0,1,1,8.92-9A8.9,8.9,0,0,1,27.62,36.52Z"/></g></g></g></svg>