<svg xmlns="http://www.w3.org/2000/svg" xmlns:xlink="http://www.w3.org/1999/xlink" viewBox="0 0 64 64"><defs><style>.cls-1{isolation:isolate;}.cls-2{fill:url(#linear-gradient);}.cls-3{mix-blend-mode:multiply;fill:url(#linear-gradient-2);}.cls-4{fill:#f5ffff;}</style><linearGradient id="linear-gradient" x1="32" y1="62.96" x2="32" y2="0.71" gradientUnits="userSpaceOnUse"><stop offset="0" stop-color="#6828f8"/><stop offset="1" stop-color="#6cf"/></linearGradient><linearGradient id="linear-gradient-2" x1="18.4" y1="20.28" x2="53.7" y2="55.58" gradientUnits="userSpaceOnUse"><stop offset="0" stop-color="gray"/><stop offset="1" stop-color="#fff"/></linearGradient></defs><title>SettingsI</title><g class="cls-1"><g id="Layer_2" data-name="Layer 2"><g id="Layer_1-2" data-name="Layer 1"><path class="cls-2" d="M64,31.91v.18a31.43,31.43,0,0,1-.57,6,30,30,0,0,1-1.22,4.51,27.2,27.2,0,0,1-1.07,2.68A32.07,32.07,0,0,1,43.73,61.79c-.94.37-1.91.7-2.89,1a31.82,31.82,0,0,1-6.05,1.11Q33.41,64,32,64h0A32,32,0,0,1,0,32.09v-.18A32,32,0,0,1,32,0h0A32,32,0,0,1,64,31.91Z"/><path class="cls-3" d="M63.43,38.11a30,30,0,0,1-1.22,4.51,27.2,27.2,0,0,1-1.07,2.68A32.07,32.07,0,0,1,43.73,61.79c-.94.37-1.91.7-2.89,1a31.82,31.82,0,0,1-6.05,1.11L17.09,46.17,21,34.88l-8.6-8.6L36.52,12.34,51.33,26Z"/><path class="cls-4" d="M50.61,36.9c-1.12-.88-2.26-1.73-3.35-2.64a1.41,1.41,0,0,1-.44-.91,24.46,24.46,0,0,1,0-2.84,1.37,1.37,0,0,1,.41-.86c1.08-.89,2.2-1.73,3.3-2.59s1-.95.41-2l-3.57-6.15c-.53-.91-.83-1-1.84-.61-1.35.53-2.68,1.09-4,1.59a1.33,1.33,0,0,1-.93-.12c-.79-.41-1.53-.94-2.33-1.33a1.13,1.13,0,0,1-.71-1c-.19-1.41-.41-2.81-.6-4.22a1.08,1.08,0,0,0-1.22-1.11q-3.73,0-7.49,0A1.09,1.09,0,0,0,27,13.2c-.18,1.38-.41,2.76-.58,4.15a1.24,1.24,0,0,1-.78,1.13,14.68,14.68,0,0,0-2.19,1.3,1,1,0,0,1-1.09.12c-1.38-.58-2.78-1.11-4.17-1.67a1.07,1.07,0,0,0-1.52.49Q14.74,22,12.81,25.33a1,1,0,0,0,.31,1.55c1.18.88,2.32,1.81,3.5,2.7a1,1,0,0,1,.48,1c-.05.92,0,1.85,0,2.77a1.43,1.43,0,0,1-.44.92c-1.07.89-2.19,1.73-3.3,2.59-.93.73-1,.93-.4,1.93q1.8,3.12,3.62,6.22c.5.87.8,1,1.78.59,1.37-.54,2.73-1.11,4.11-1.61a1.18,1.18,0,0,1,.86.1c.79.42,1.52,1,2.33,1.34a1.18,1.18,0,0,1,.75,1.07c.18,1.39.38,2.77.59,4.15.14.94.37,1.13,1.33,1.13h7.2c1.07,0,1.26-.16,1.42-1.2.21-1.36.4-2.72.58-4.08a1.2,1.2,0,0,1,.74-1.08,15.46,15.46,0,0,0,2.25-1.33,1,1,0,0,1,1-.12c1.38.58,2.77,1.12,4.17,1.66.84.33,1.15.21,1.6-.56q1.86-3.16,3.69-6.35C51.51,37.81,51.46,37.56,50.61,36.9ZM32,38.93a7,7,0,1,1,6.9-7.09A7,7,0,0,1,32,38.93Z"/></g></g></g></svg>