<svg xmlns="http://www.w3.org/2000/svg" xmlns:xlink="http://www.w3.org/1999/xlink" viewBox="0 0 64 64"><defs><style>.cls-1{isolation:isolate;}.cls-2{fill:url(#linear-gradient);}.cls-3{mix-blend-mode:multiply;fill:url(#linear-gradient-2);}.cls-4{fill:#f5ffff;}</style><linearGradient id="linear-gradient" x1="32" y1="1.04" x2="32" y2="63.29" gradientTransform="translate(64 64) rotate(180)" gradientUnits="userSpaceOnUse"><stop offset="0" stop-color="#6828f8"/><stop offset="1" stop-color="#6cf"/></linearGradient><linearGradient id="linear-gradient-2" x1="30.77" y1="23.84" x2="55.57" y2="48.64" gradientUnits="userSpaceOnUse"><stop offset="0" stop-color="gray"/><stop offset="1" stop-color="#fff"/></linearGradient></defs><title>Share</title><g class="cls-1"><g id="Layer_2" data-name="Layer 2"><g id="Layer_1-2" data-name="Layer 1"><path class="cls-2" d="M0,32.09v-.18A31.86,31.86,0,0,1,1.35,22.7c.14-.45.28-.89.44-1.33A32.05,32.05,0,0,1,21.93,1.61l1.23-.38A32.21,32.21,0,0,1,32,0h0A32,32,0,0,1,64,31.91v.18A32,32,0,0,1,32,64h0A32,32,0,0,1,.07,34.25C0,33.54,0,32.82,0,32.09Z"/><path class="cls-3" d="M64,31.91v.18a31.86,31.86,0,0,1-1.35,9.21c-.14.45-.28.89-.44,1.33A32.05,32.05,0,0,1,42.07,62.39L15.61,35.93,48.16,14,63.93,29.75C64,30.46,64,31.18,64,31.91Z"/><path class="cls-4" d="M39.77,22.39l.46.37a5.6,5.6,0,0,0,6.27.65,5.74,5.74,0,0,0,3.32-5.59,5.94,5.94,0,1,0-11.82,1,.79.79,0,0,1-.46,1q-6.43,3.71-12.83,7.44a.84.84,0,0,1-1.11-.08,5.9,5.9,0,0,0-8,.83,5.81,5.81,0,0,0,0,7.91,5.88,5.88,0,0,0,8,.82.89.89,0,0,1,1.18,0c4,2.33,7.91,4.68,11.91,6.92a2.35,2.35,0,0,1,1.47,2.44,5.71,5.71,0,0,0,5.34,5.63,5.87,5.87,0,0,0,6-4.59A5.82,5.82,0,0,0,40,41.55l-.66-.37c-4.22-2.44-8.42-4.89-12.65-7.3-.56-.33-1-.59-.73-1.37a2.94,2.94,0,0,0,0-1.41.64.64,0,0,1,.41-.81c.9-.5,1.77-1,2.65-1.55Z"/><path class="cls-4" d="M39.77,22.39,28.94,28.74c-.88.51-1.75,1.05-2.65,1.55a.64.64,0,0,0-.41.81,2.94,2.94,0,0,1,0,1.41c-.23.78.17,1,.73,1.37,4.23,2.41,8.43,4.86,12.65,7.3l.66.37A5.82,5.82,0,1,1,43.5,51.71a5.71,5.71,0,0,1-5.34-5.63,2.35,2.35,0,0,0-1.47-2.44c-4-2.24-7.95-4.59-11.91-6.92a.89.89,0,0,0-1.18,0,5.88,5.88,0,0,1-8-.82,5.81,5.81,0,0,1,0-7.91,5.9,5.9,0,0,1,8-.83.84.84,0,0,0,1.11.08q6.41-3.73,12.83-7.44a.79.79,0,0,0,.46-1,5.94,5.94,0,1,1,11.82-1,5.74,5.74,0,0,1-3.32,5.59,5.6,5.6,0,0,1-6.27-.65Z"/></g></g></g></svg>