<svg xmlns="http://www.w3.org/2000/svg" xmlns:xlink="http://www.w3.org/1999/xlink" viewBox="0 0 64 64"><defs><style>.cls-1{isolation:isolate;}.cls-2{fill:url(#linear-gradient);}.cls-3{mix-blend-mode:multiply;fill:url(#linear-gradient-2);}.cls-4{fill:#f5ffff;}</style><linearGradient id="linear-gradient" x1="32" y1="62.96" x2="32" y2="0.71" gradientUnits="userSpaceOnUse"><stop offset="0" stop-color="#6828f8"/><stop offset="1" stop-color="#6cf"/></linearGradient><linearGradient id="linear-gradient-2" x1="15.49" y1="39.04" x2="64" y2="39.04" gradientUnits="userSpaceOnUse"><stop offset="0" stop-color="gray"/><stop offset="1" stop-color="#fff"/></linearGradient></defs><title>Update</title><g class="cls-1"><g id="Layer_2" data-name="Layer 2"><g id="Layer_1-2" data-name="Layer 1"><path class="cls-2" d="M64,31.91v.18a31.43,31.43,0,0,1-.57,6,30,30,0,0,1-1.22,4.51c-.21.63-.45,1.24-.71,1.84q-.16.42-.36.84A32.07,32.07,0,0,1,43.73,61.79c-.94.37-1.91.7-2.89,1a31.82,31.82,0,0,1-6.05,1.11Q33.41,64,32,64h-.61c-.63,0-1.26,0-1.88-.08A32,32,0,0,1,0,32.09v-.18a32,32,0,0,1,64-.72C64,31.43,64,31.67,64,31.91Z"/><path class="cls-3" d="M64,31.91v.18a31.43,31.43,0,0,1-.57,6,30,30,0,0,1-1.22,4.51c-.21.63-.45,1.24-.71,1.84q-.16.42-.36.84A32.07,32.07,0,0,1,43.73,61.79c-.94.37-1.91.7-2.89,1a31.82,31.82,0,0,1-6.05,1.11Q33.41,64,32,64h-.61l-15.9-15.9,4.36-4.94-4.36-10,2.86-9.9,7-6.15,4.45-3,7.09,7.09,11.61-5.43L64,31.19C64,31.43,64,31.67,64,31.91Z"/><path class="cls-4" d="M27.25,48.91l-11.89-.68,3.58-3.79c-5.35-6.3-6.52-13.31-2.86-20.77,2.73-5.56,7.47-8.67,13.77-9.59v4.44c-5.7,1.31-9.68,4.66-11,10.59a13,13,0,0,0,3.35,12l4.9-4.93.17.11Z"/><path class="cls-4" d="M34.18,49.92V45.48c6-1.49,10-5,11.12-11.27a12.8,12.8,0,0,0-3.42-11.35l-5,4.79V15.07l11.71.67L45,19.48c5.3,6.16,6.46,13,3.18,20.35A17.4,17.4,0,0,1,34.18,49.92Z"/></g></g></g></svg>