<svg xmlns="http://www.w3.org/2000/svg" viewBox="0 0 534.41 320.19"><defs><style>.cls-1{fill:#fff;}</style></defs><title>AddFCUWP</title><g id="Layer_2" data-name="Layer 2"><g id="Layer_1-2" data-name="Layer 1"><path class="cls-1" d="M369.78,252.38c-4.17-6.87-10-12-16.17-16.93h0l-3.05-2.29c-26.83-17.66-56.72-26.44-88.24-30.59-29.54-3.89-58.5-.63-87.12,6.91a176.9,176.9,0,0,0-57.11,26.25,61.08,61.08,0,0,0-14.24,13.69A35.82,35.82,0,0,0,96.47,271q-.07,20-.12,40.08h0a42.06,42.06,0,0,1,.07,5.61c-.33,2.86.77,3.51,3.54,3.51q135.87-.1,271.75,0c2.87,0,3.55-.85,3.53-3.59-.13-14.5,0-29-.08-43.48q0-2.3-.21-4.53-.06-.68-.15-1.35A36.6,36.6,0,0,0,369.78,252.38Z"/><path class="cls-1" d="M269.62,53.14h0l-3.11-2.21c-18.17-10.31-37-11.8-55.75-2.43-34.39,17.18-43.37,56.92-24.63,85.6.46.71,1.22,1.3,1.1,2.29h0a8.66,8.66,0,0,1,2.85,2.86c15,19.75,42.45,27.63,65.81,19.13a51.13,51.13,0,0,0,6.12-2.71c.27-.13.54-.28.8-.43a73.69,73.69,0,0,0,15.9-12c.36-.51.68-1,1.08-1.51,15.21-17.57,18.69-37.52,11.72-59.4C287.63,70.11,279.51,60.91,269.62,53.14Z"/><path class="cls-1" d="M452.34,320.12l82.05-.13q0-24.33,0-48.66a37,37,0,0,0-7.61-22.23c-3.94-5.41-9.14-9.45-14.21-13.66h0c-38.46-25.84-81.44-35-127.06-34.4-2.61,0-5.22.3-7.83.46-2.35,1-.14,1.38.33,1.78,4,3.38,8.5,6.08,11.66,10.36a9.85,9.85,0,0,1,3.8,3.67c13.26,13.74,20.68,30.19,21.44,49.21.59,14.82.11,29.68.11,44.52h0a43.69,43.69,0,0,1,.08,5.6c-.32,2.82.69,3.59,3.5,3.55,2.57,0,5.15-.07,7.72-.08h1.34C435.89,320.07,444.11,320.13,452.34,320.12Z"/><path class="cls-1" d="M430.2,54.58h0l-3.91-2.89h0a61,61,0,0,0-35.24-9.09c-26.78,1.06-52.12,24.47-55.46,51.13a59.94,59.94,0,0,0,9.19,41h0a2.67,2.67,0,0,1,.59.44c14.21,19.51,33,28.87,57.37,26,33.35-4,57.69-38.8,50.2-71.54C449.63,75.07,441.5,63.85,430.2,54.58Z"/><path class="cls-1" d="M63.63,159.67q16.29-.25,32.59,0c2.92.05,3.79-.71,3.77-3.72-.15-17.48,0-35-.14-52.44,0-3,.76-3.74,3.71-3.72,17.48.14,35,0,52.45.14,3,0,3.76-.84,3.72-3.76q-.25-16.29,0-32.59c0-3-.91-3.77-3.82-3.74-17.36.18-34.71.18-52.07.17-1.25,0-2.74.74-3.78-.67h0L100,51.12h0Q100,30,99.92,8.83c0-8.52,0-8.52-8.31-8.74-.25,0-.5-.06-.74-.09h0C81.64.05,72.41.19,63.18.07c-2.62,0-3.34.71-3.32,3.32C60,21,59.85,38.58,60,56.17c0,3-.8,3.78-3.76,3.75-17.47-.13-34.94,0-52.4-.13-2.93,0-3.76.75-3.71,3.7.16,9.1,0,18.21-.06,27.32h0a24.8,24.8,0,0,1,.07,4.47C-.48,99.12,1,100,4.78,100c15.46-.2,30.93,0,46.4,0h0l8.2.06h0c1.41,1,.67,2.54.67,3.79,0,17.35,0,34.71-.16,52.06C59.87,158.76,60.63,159.71,63.63,159.67Z"/></g></g></svg>