<svg xmlns="http://www.w3.org/2000/svg" viewBox="0 0 667.56 667.55"><defs><style>.cls-1{fill:#4296eb;}.cls-2{fill:#459df7;}.cls-3{fill:#fefefe;}.cls-4{fill:#005dc7;}.cls-5{fill:#2e7fd8;}.cls-6{fill:#196fd0;}.cls-7{fill:#2477d3;}.cls-8{fill:#1a6fd0;}.cls-9{fill:#025ec8;}</style></defs><title>AddFC</title><g id="Layer_2" data-name="Layer 2"><g id="Layer_1-2" data-name="Layer 1"><path class="cls-1" d="M300.05,301.13,198.4,199.48Q105.54,106.71,12.78,13.83c-1.42-1.43-4-2.45-3-5.37,4.94-5.1,11.1-7.39,18-8.07C28.62.3,29.55.27,30.47.27Q333,.27,635.61.25c13,0,22.65,5.24,28.65,16.59a33.24,33.24,0,0,1,3.24,12.28c0,1.15,0,2.3,0,3.45q0,301.49,0,603c0,8.57-2,16.28-8.22,22.51-1.28.83-2.17.08-3-.65-.51-.44-1-.89-1.49-1.37l-179.1-179.1c-.19-.19-.36-.4-.54-.61C474.54,475.55,339.92,341.06,300.05,301.13Z" transform="translate(0 -0.25)"/><path class="cls-2" d="M656,655.85c1,.95,1.75,2.18,3.34,2.2-5.26,6.13-12.13,8.94-20,9.66-1.37.12-2.75.06-4.13.06q-301.44,0-602.9,0c-13.54,0-23.58-5.44-29.6-17.75A27.36,27.36,0,0,1,.05,638.47c0-1,0-2,0-3Q0,334,0,32.57C0,23.14,2.43,14.85,9.75,8.46c.12,2,1.8,2.92,3,4.12q93.74,93.78,187.48,187.54" transform="translate(0 -0.25)"/><path class="cls-3" d="M605.38,498.42l-82.06.12c-11.24,0-22.48-.09-33.72.07-2.81,0-3.82-.72-3.51-3.54a42.06,42.06,0,0,0-.07-5.61c-1.18-1.52-.9-3.32-.9-5q0-16.82,0-33.64c.07-18.49-5.42-35.06-17.05-49.5-1.17-1.46-1.91-3.23-3.33-4.48-1.29-1.63-2.8-3.08-4.05-4.74-3.16-4.27-7.71-7-11.66-10.35-.47-.4-2.68-.76-.33-1.79,2.31-1.48,5-1.46,7.57-1.59a158.42,158.42,0,0,1,18,0A267.66,267.66,0,0,1,527.36,387c18.65,5.12,36.37,12.4,52.44,23.35,1.43,1,3,1.87,3.78,3.51,5.07,4.21,10.27,8.25,14.21,13.67a36.83,36.83,0,0,1,7.6,22.23Q605.38,474.09,605.38,498.42Z" transform="translate(0 -0.25)"/><path class="cls-3" d="M501.19,233c11.3,9.26,19.43,20.48,22.75,35,7.49,32.74-16.85,67.55-50.2,71.54-24.36,2.91-43.16-6.46-57.38-26a2.37,2.37,0,0,0-.58-.43c-5.15-4.22-7-10.34-8.53-16.29-5.81-22.05-.84-41.47,15-58,12.66-13.23,28.12-19.55,46.38-18.81,10.3.42,19.93,3.17,28.39,9.33C498.55,230.42,500.21,231.32,501.19,233Z" transform="translate(0 -0.25)"/><path class="cls-3" d="M349.69,321.63c-6.68,6.44-13.93,11.95-22.81,15.18-23.36,8.51-50.79.62-65.81-19.13a8.75,8.75,0,0,0-2.85-2.86c-16.94-19.58-15.33-55.2,5-75.37,8-7.94,16.82-14.17,27.65-17.24a58.93,58.93,0,0,1,41.67,3.37,37.48,37.48,0,0,1,4.76,3c1.17.92,2.58,1.59,3.28,3,9.89,7.77,18,17,21.89,29.16,7,21.88,3.49,41.83-11.72,59.4C350.38,320.59,350.05,321.13,349.69,321.63Z" transform="translate(0 -0.25)"/><path class="cls-4" d="M497.28,230.11A61,61,0,0,0,462,221c-26.78,1.06-52.12,24.47-55.46,51.13a59.91,59.91,0,0,0,9.2,41c-.85,1-1.3,0-1.74-.43A58.61,58.61,0,0,1,397.59,280c-4.31-28.2,12.67-53.15,35.45-63,20.5-8.86,40.34-6.66,58.55,6.79,2.29,1.69,4.39,3.65,6.58,5.48C498.28,230,498.07,230.34,497.28,230.11Z" transform="translate(0 -0.25)"/><path class="cls-4" d="M337.5,229.37c-18.17-10.32-37-11.81-55.75-2.44-34.39,17.18-43.38,56.92-24.64,85.6.46.71,1.22,1.3,1.11,2.29a53.56,53.56,0,0,1-18.67-32.76c-3-16.94.78-32.43,11.24-46.17,1.58-2.08,3.4-4,5.11-5.95,7.17-6.7,14.94-12.48,24.54-15.21,20.63-5.87,39.42-2.77,55.74,11.83.74.66,1.5,1.29,2.26,1.94C338.53,229.23,338.3,229.61,337.5,229.37Z" transform="translate(0 -0.25)"/><path class="cls-4" d="M583.58,413.86c-38.46-25.84-81.44-35-127.06-34.4-2.61,0-5.22.31-7.83.46l-10.29-8.65a169.44,169.44,0,0,1,29.65-.55,276.14,276.14,0,0,1,31.43,4c27.16,5.06,52.61,14.35,75.31,30.43,2.93,2.08,5.58,4.58,8.31,6.93C583.57,412.52,584.54,413,583.58,413.86Z" transform="translate(0 -0.25)"/><path class="cls-4" d="M464.48,395.73c13.26,13.74,20.68,30.19,21.44,49.21.59,14.82.11,29.68.1,44.52-8.86.24-8.85.24-8.87-8.6,0-10.36-.06-20.72-.09-31.09.84-15.92-1.08-31.31-8.83-45.56-1.42-2.62-3-5.13-4.58-7.69C463.42,395.73,463.76,395.52,464.48,395.73Z" transform="translate(0 -0.25)"/><path class="cls-5" d="M497.28,230.11l.89-.85c1.22,1.08,3.06,1.66,3,3.75Q499.24,231.56,497.28,230.11Z" transform="translate(0 -0.25)"/><path class="cls-6" d="M464.48,395.73l-.83.79c-1-1.45-2.69-2.5-3-4.46A9.92,9.92,0,0,1,464.48,395.73Z" transform="translate(0 -0.25)"/><path class="cls-7" d="M337.5,229.37l.94-.87c.87.91,2.77,1.11,2.17,3.07Z" transform="translate(0 -0.25)"/><path class="cls-3" d="M424.6,413.87c6.18,4.89,12,10.07,16.17,16.93,3.91,6.43,5.35,13.39,5.38,20.74.05,14.49,0,29,.07,43.48,0,2.75-.65,3.59-3.52,3.59q-135.87-.12-271.75,0c-2.77,0-3.87-.65-3.54-3.51a42.08,42.08,0,0,0-.07-5.61c-1.23-1.51-1-3.32-1-5,0-10.62.23-21.26-.07-31.87C165.9,438,172.2,426.77,183,417.7c13.36-11.24,28.74-19,45-25a232.21,232.21,0,0,1,65.43-13.76c35.44-2.41,69.42,3.86,102.11,17.45a137.51,137.51,0,0,1,25.91,14.23C422.38,411.78,424,412.34,424.6,413.87Z" transform="translate(0 -0.25)"/><path class="cls-4" d="M421.55,411.58c-26.83-17.65-56.72-26.44-88.24-30.59-29.54-3.89-58.51-.63-87.12,6.91a176.8,176.8,0,0,0-57.11,26.25,61.08,61.08,0,0,0-14.24,13.69,35.75,35.75,0,0,0-7.38,21.56q-.08,20-.12,40.08c-8.91.17-8.91.17-8.91-8.6,0-12.86.16-25.74,0-38.6-.21-13.89,6.09-24.52,16.43-32.91,22.42-18.17,48.61-28,76.54-33.82,17.36-3.6,34.9-6.1,52.65-5.17,38.24,2,74.73,10.32,107.35,31.55a67.64,67.64,0,0,1,11.11,8.79C422.59,411.46,422.34,411.81,421.55,411.58Z" transform="translate(0 -0.25)"/><path class="cls-8" d="M421.55,411.58l.92-.86c.8,1,2.87,1.12,2.13,3.15Z" transform="translate(0 -0.25)"/><path class="cls-3" d="M122.17,278.36c-15.47,0-30.94-.19-46.4,0-3.75.05-5.26-.83-4.65-4.66a24.88,24.88,0,0,0-.07-4.48c-1.17-1.35-1.09-3-1.1-4.62,0-7.12-.07-14.23,0-21.34.06-5,.93-5.9,6-5.93,15.6-.09,31.19,0,46.79,0,1.37,0,2.74,0,4.12-.08a2.78,2.78,0,0,0,3-3c.06-1.37.08-2.74.08-4.12q0-22.83,0-45.67c0-6.43.68-7.07,7.08-7.1q9.91,0,19.84,0c1.73,0,3.53-.15,5,1.1a4.8,4.8,0,0,0,.75.09c8.3.23,8.3.23,8.31,8.74q0,21.15.08,42.29a8.19,8.19,0,0,1,0,8.21c1,1.41,2.54.67,3.79.67,17.35,0,34.71,0,52.07-.16,2.91,0,3.86.73,3.82,3.73q-.25,16.29,0,32.59c0,2.92-.72,3.79-3.73,3.77-17.48-.15-35,0-52.44-.14-3,0-3.74.76-3.71,3.71.14,17.48,0,35,.14,52.45,0,3-.85,3.76-3.77,3.72q-16.29-.25-32.59,0c-3,.05-3.76-.91-3.74-3.82.18-17.36.18-34.71.17-52.07,0-1.25.74-2.74-.67-3.78A8.17,8.17,0,0,1,122.17,278.36Z" transform="translate(0 -0.25)"/><path class="cls-4" d="M161.85,178.42c-9.22.05-18.46.19-27.68.07-2.62,0-3.34.71-3.32,3.32.11,17.59,0,35.19.12,52.78,0,3-.79,3.78-3.75,3.76-17.47-.14-34.94,0-52.4-.14-2.93,0-3.76.75-3.71,3.7.16,9.11,0,18.21-.06,27.32-8.89.13-8.89.13-8.89-8.61V234.39c0-4.92,0-4.93,4.76-4.93,17,0,34-.08,51,.07,3.29,0,4.3-1,4.27-4.27-.14-17.12,0-34.23-.13-51.34,0-3.26.6-4.57,4.25-4.48,10.49.27,21,.22,31.48,0,3.21-.06,4.68.67,4.18,4.1A35.76,35.76,0,0,0,161.85,178.42Z" transform="translate(0 -0.25)"/><path class="cls-9" d="M171,237.75c0-2.73,0-5.47,0-8.2,15.7,0,31.4,0,47.1-.16,4.12,0,2.9,2.62,3.16,4.76.33,2.7-.57,3.69-3.47,3.66C202.2,237.68,186.62,237.75,171,237.75Z" transform="translate(0 -0.25)"/><path class="cls-9" d="M122.17,278.36l8.21.06c0,15.45-.1,30.91.07,46.36,0,3.23-1,4-4,3.92s-4.46-.34-4.4-4C122.24,309.27,122.14,293.81,122.17,278.36Z" transform="translate(0 -0.25)"/></g></g></svg>