<svg xmlns="http://www.w3.org/2000/svg" viewBox="0 0 437.32 317.92"><defs><style>.cls-1{fill:#fff;}</style></defs><title>AddPUWP</title><g id="Layer_2" data-name="Layer 2"><g id="Layer_1-2" data-name="Layer 1"><path class="cls-1" d="M120.11,310.54c1.35,7,1.35,7,8.61,7q150.92,0,301.81,0c2,0,4.13-.38,6.06.32a1.85,1.85,0,0,0,.32-.51c.4-13.84.68-27.7-.05-41.49-.71-13.27-7.7-23.71-17.54-32.32a27.3,27.3,0,0,1-3.83-3.54c-.43-.62-.85-1.25-1.32-1.83a4.62,4.62,0,0,1-1-1.07h0c-21.64-14.23-45.84-22.27-70.58-28.84a243.51,243.51,0,0,0-82.39-7.76c-29.71,2.38-58.19,10-85.79,21-14.55,5.82-28.44,12.85-39.83,23.95-10.15,9.9-15.53,21.76-15.2,36.15.21,9.27,0,18.56,0,27.84A2.81,2.81,0,0,1,120.11,310.54Z"/><path class="cls-1" d="M103.54,159.73c17.6.14,35.21,0,52.81.12,2.64,0,3.38-.76,3.35-3.36-.14-11-.16-22,0-33,0-3-.91-3.77-3.82-3.74-17.35.17-34.7.17-52.06.16-1.25,0-2.74.73-3.79-.66h0l-.06-8.22h0q0-21.14-.08-42.26c0-8.5,0-8.5-8.3-8.75-.25,0-.49-.06-.74-.09h0c-9.23,0-18.46.19-27.68.07-2.62,0-3.35.69-3.33,3.32.11,17.59,0,35.18.12,52.77,0,3-.79,3.78-3.76,3.76-17.46-.14-34.93,0-52.39-.14-2.95,0-3.76.78-3.71,3.72.16,9.09,0,18.2,0,27.3h0a24,24,0,0,1,.07,4.48c-.62,3.85.93,4.7,4.66,4.65,15.45-.2,30.91,0,46.37,0h0l8.22.06h0c1.39,1.05.66,2.54.66,3.8,0,17.35,0,34.7-.16,52,0,2.91.73,3.87,3.74,3.82q16.29-.26,32.58,0c2.93,0,3.78-.75,3.76-3.73-.15-17.48,0-35-.14-52.44C99.8,160.49,100.59,159.7,103.54,159.73Z"/><path class="cls-1" d="M323.32,14.39h0C294.75-3.9,265.45-5.18,236.75,13c-35.14,22.24-47.27,67.56-28.83,103.19,1.6,3.09,3.52,6,5.28,9h0a12.79,12.79,0,0,1,3,3.81h0c7.69,9.17,16.43,17.09,27.18,22.54,27,13.71,64.72,11.21,90.73-14.43,28.17-27.78,32-71.71,8.52-103.55C337.12,26.18,330.4,20.13,323.32,14.39Z"/></g></g></svg>