<svg xmlns="http://www.w3.org/2000/svg" viewBox="0 0 667.56 667.55"><defs><style>.cls-1{fill:#4296eb;}.cls-2{fill:#459df7;}.cls-3{fill:#fefefe;}.cls-4{fill:#005dc7;}.cls-5{fill:#287bd6;}.cls-6{fill:#1f71cf;}.cls-7{fill:#015ec8;}</style></defs><title>AddP</title><g id="Layer_2" data-name="Layer 2"><g id="Layer_1-2" data-name="Layer 1"><path class="cls-1" d="M9.75,8.21C14.88,2.91,21.33.64,28.51.06c1.12-.09,2.25,0,3.37,0Q333.74,0,635.61,0C649,0,658.89,5.59,664.83,17.73a27.27,27.27,0,0,1,2.68,11.59c0,1,0,2,0,3q0,301.49,0,603c0,8.57-2,16.28-8.22,22.51-1.42.92-2.34-.1-3.29-.88s-1.8-1.73-2.69-2.61Q575.71,576.66,498.07,499c-1.51-1.51-4.49-2.93-3.54-5.18s4-1.15,6.19-1.16c15.62-.07,31.24,0,46.85-.07,1.37,0,3.1.72,4-1.16.41-13.85.68-27.7,0-41.5-.71-13.27-7.7-23.71-17.53-32.31a28.06,28.06,0,0,1-3.84-3.55,15.67,15.67,0,0,0-2.24-2.83,105.47,105.47,0,0,0-30.32-19.75,307.93,307.93,0,0,0-79.3-23.14c-7.78-1.13-15.66-1.39-23.47-2.18-9.64-1-19.2,1-28.77-.11-1.65-.49-2.67-1.8-3.81-2.94q-175-175-350-350C11,11.78,8.72,10.77,9.75,8.21Z"/><path class="cls-2" d="M9.75,8.21c.17,2.14,2,3.1,3.26,4.38Q187.52,187.16,362.06,361.7c1.14,1.14,2.16,2.4,3.23,3.61-.69,1.54-2.12,1.57-3.48,1.7-25.27,2.39-49.59,8.68-73.33,17.48-12.79,4.73-25.3,10-36.57,17.83-10.23,7.13-18.82,15.58-23.27,27.58a39.54,39.54,0,0,0-2.55,13.54c-.08,11.6,0,23.21,0,34.81,0,4.23.05,4.21,4.45,4.51,1.59.11,3.33-.09,4.22,1.75,1.36,7,1.36,7,8.62,7q150.9,0,301.8,0c2.57,0,5.3-.62,7.61,1.19-1.22,1.34-2.82.74-4.25.74q-24.91.06-49.83,0H495c-.13,1.59,1.06,2.09,1.79,2.82Q576.36,576,656,655.6c1,1,1.75,2.18,3.34,2.2-5.26,6.13-12.13,8.94-20,9.66-1.37.12-2.75.06-4.13.06q-301.44,0-602.9,0c-13.54,0-23.58-5.44-29.6-17.75A27.36,27.36,0,0,1,.05,638.22c0-1,0-2,0-3Q0,333.77,0,32.32C0,22.89,2.43,14.6,9.75,8.21Z"/><path class="cls-3" d="M552.77,492.76c-1.62.06-3.24.19-4.86.19L240.1,493c-6,0-6,0-6-6.21,0-1-.06-2-.09-3-1.23-1.5-1-3.31-1-5,0-7.87.1-15.74,0-23.61-.27-16.35,6.92-29.11,19-39.47S278.23,398.52,293,392.9c21.44-8.15,43.39-14.39,66.13-17.65,8.28-1.18,16.61-1.69,25-2.14,28.29-1.52,55.79,2.87,82.77,10.77,18.22,5.33,36.23,11.44,52.79,21.06a56.54,56.54,0,0,1,7.68,5.33,15.79,15.79,0,0,1,2.84,2.76c5.07,4.23,10,8.58,13.86,14a44.73,44.73,0,0,1,8.67,26.48Q552.77,473.15,552.77,492.76Z"/><path class="cls-3" d="M438,188.36c7.09,5.74,13.81,11.8,19.28,19.2,23.52,31.84,19.65,75.78-8.52,103.55-26,25.64-63.68,28.14-90.72,14.43-10.76-5.45-19.5-13.37-27.19-22.54-1.75-.88-2.54-2.64-3.72-4.05-9.06-11.41-12.76-24.83-13.71-39-1.41-20.93,4.43-39.82,17.8-56.11,13.7-16.68,30.93-27.63,52.71-29.86,16.71-1.71,32.93.57,47.77,9.23C434,184.61,436.36,186,438,188.36Z"/><path class="cls-4" d="M527.81,411.14c-21.64-14.23-45.84-22.28-70.58-28.85a243.51,243.51,0,0,0-82.39-7.75c-29.71,2.38-58.19,10-85.79,21-14.55,5.82-28.44,12.85-39.83,24-10.15,9.89-15.53,21.76-15.2,36.14.21,9.36,0,18.74-.05,28.11-8.93.3-8.93.3-8.93-8.54,0-10.11,0-20.22,0-30.33,0-15.61,7.11-27.71,18.61-37.53,16.58-14.15,36.66-21.31,56.89-28.19,18.92-6.44,38.36-10.46,58.12-13.08,2.2-.3,4.51.29,6.63-.79,5.6-.13,11.23-.54,16.8-.55a253.91,253.91,0,0,1,30.53,1.81,259.33,259.33,0,0,1,44.88,9.27c20.4,6.21,40.72,12.78,58.69,24.78,4.55,3,9.08,6.15,12.66,10.4A.72.72,0,0,1,527.81,411.14Z"/><path class="cls-4" d="M438,188.36c-28.58-18.29-57.87-19.56-86.57-1.39-35.14,22.25-47.27,67.57-28.83,103.19,1.6,3.1,3.52,6,5.28,9,.25.77-.1.94-.78.79-10.49-11.3-17.82-24.18-20.45-39.6-4-23.52.69-44.88,15.47-63.73C335.59,179.44,353,168.24,375,166c21-2.16,40.45,2.29,57.19,16C437.26,186.14,437.34,186,438,188.36Z"/><path class="cls-5" d="M327.05,300l.78-.79a12.79,12.79,0,0,1,3,3.81C328.65,303.12,328.1,301.23,327.05,300Z"/><path class="cls-6" d="M527.81,411.14l1-.12a2,2,0,0,1,1.37,2A5.29,5.29,0,0,1,527.81,411.14Z"/><path class="cls-3" d="M205.49,233.93a6.49,6.49,0,0,0,.74.09c8.3.25,8.29.25,8.3,8.75q0,21.14.08,42.26a8.18,8.18,0,0,1,.06,8.23c1.05,1.39,2.55.66,3.8.66,17.35,0,34.7,0,52-.16,2.92,0,3.87.74,3.82,3.74-.17,11-.14,22,0,33,0,2.6-.71,3.38-3.35,3.37-17.6-.11-35.21,0-52.81-.13-2.95,0-3.74.76-3.71,3.71.14,17.48,0,35,.14,52.44,0,3-.82,3.78-3.76,3.73q-16.29-.25-32.58,0c-3,.05-3.77-.9-3.74-3.81.17-17.36.18-34.71.16-52.06,0-1.25.73-2.75-.66-3.79a8.23,8.23,0,0,1-8.23-.06c-15.46,0-30.92-.19-46.37,0-3.72.05-5.27-.8-4.65-4.65a24.92,24.92,0,0,0-.08-4.48c-1.18-1.34-1.1-3-1.11-4.62,0-7.11-.07-14.22,0-21.34.06-5,.92-5.91,6-5.93,15.6-.09,31.2,0,46.8,0,1.37,0,2.74,0,4.12-.08a2.79,2.79,0,0,0,3-3c.06-1.38.08-2.75.08-4.12q0-22.83,0-45.68c0-6.42.68-7.06,7.09-7.09q9.92,0,19.84,0C202.23,232.83,204,232.67,205.49,233.93Z"/><path class="cls-4" d="M205.49,233.93c-9.23,0-18.46.18-27.69.06-2.61,0-3.34.7-3.32,3.32.11,17.59,0,35.18.12,52.77,0,3-.79,3.79-3.76,3.76-17.46-.13-34.93,0-52.39-.13-3,0-3.76.77-3.71,3.71.16,9.1,0,18.21,0,27.31-8.9.14-8.9.14-8.9-8.6,0-9,.19-18-.09-27-.11-3.62,1.17-4.3,4.46-4.27,17.11.14,34.23,0,51.34.13,3.3,0,4.3-1,4.27-4.27-.14-17.11,0-34.23-.13-51.34,0-3.29.65-4.55,4.27-4.46,10.49.26,21,.22,31.48,0,3.21-.06,4.68.68,4.18,4.1A34.36,34.36,0,0,0,205.49,233.93Z"/><path class="cls-7" d="M214.67,293.26l-.06-8.23c15.84,0,31.68.05,47.51-.17,3.56,0,3.36,1.85,3.34,4.22s.36,4.3-3.28,4.26C246.35,293.15,230.51,293.26,214.67,293.26Z"/><path class="cls-7" d="M165.79,333.86l8.23.06c0,15.71-.12,31.42.08,47.13,0,3.54-1.54,3.68-4.26,3.7s-4.26-.32-4.22-3.77C165.83,365.28,165.76,349.57,165.79,333.86Z"/></g></g></svg>