<svg xmlns="http://www.w3.org/2000/svg" xmlns:xlink="http://www.w3.org/1999/xlink" viewBox="0 0 768 766.64"><defs><style>.cls-1{isolation:isolate;}.cls-2{fill:none;}.cls-3{fill:url(#linear-gradient);}.cls-4,.cls-5,.cls-7{mix-blend-mode:multiply;}.cls-4{fill:url(#linear-gradient-2);}.cls-5{fill:url(#linear-gradient-3);}.cls-6{fill:#fff;}.cls-7{fill:url(#linear-gradient-4);}</style><linearGradient id="linear-gradient" x1="385.75" y1="134.66" x2="385.75" y2="635.04" gradientUnits="userSpaceOnUse"><stop offset="0" stop-color="#4d9df2"/><stop offset="1" stop-color="#584bf8"/></linearGradient><linearGradient id="linear-gradient-2" x1="503.72" y1="397.4" x2="742.44" y2="636.11" gradientUnits="userSpaceOnUse"><stop offset="0" stop-color="#7f7f7f"/><stop offset="1" stop-color="#fff" stop-opacity="0"/></linearGradient><linearGradient id="linear-gradient-3" x1="216.11" y1="327.39" x2="570.63" y2="681.91" gradientUnits="userSpaceOnUse"><stop offset="0" stop-color="#7f7f7f"/><stop offset="1" stop-color="#fff"/></linearGradient><linearGradient id="linear-gradient-4" x1="372.19" y1="222.03" x2="640.68" y2="490.52" gradientUnits="userSpaceOnUse"><stop offset="0" stop-color="gray"/><stop offset="1" stop-color="#fff"/></linearGradient></defs><title>launcher_foreground</title><g class="cls-1"><g id="Layer_2" data-name="Layer 2"><g id="Layer_1-2" data-name="Layer 1"><rect class="cls-2" width="768" height="766.64"/><rect class="cls-3" x="129.23" y="126.31" width="513.04" height="514.47" rx="52"/><polyline class="cls-4" points="642.27 324.38 642.27 640.78 528.37 640.37 426.61 538.33 415.23 527.54 414.48 416.12 427.43 398.75 493.48 395.73 509.09 319.1 536.97 299.04 531.56 292.17 559.96 235"/><polyline class="cls-5" points="529.69 641.69 415.23 527.54 427.43 398.75 247.67 235 217.05 290.36 223.93 301.34 210.79 355.41 200.46 344.76 211.74 462.97 390.66 640.78"/><path class="cls-6" d="M534.67,228.67a33.22,33.22,0,0,0-20.85,13.18,40,40,0,0,0-5.05,10.82,36.48,36.48,0,0,0-.53,13.52,32.68,32.68,0,0,0,23.32,26,38.43,38.43,0,0,0,13.84.79,33.14,33.14,0,0,0,26.23-23.51c.79-2.7.89-3.46.89-8.56,0-4.73-.1-6-.72-8.12C567.21,236.13,551.1,225.71,534.67,228.67Z"/><path class="cls-6" d="M225.35,229a32.57,32.57,0,0,0-8.3,61.36c5.25,2.57,7.51,3.06,14.11,3.06s8.85-.49,14.1-3.06A32.6,32.6,0,0,0,263,267.8a41.06,41.06,0,0,0,.19-12.5c-2.65-12.89-11.67-22.56-24.23-25.84A39.91,39.91,0,0,0,225.35,229Z"/><path class="cls-6" d="M531.39,299.08A27.6,27.6,0,0,0,511,314.5a37,37,0,0,0-1.91,4.6c-.39,1.25-4.06,19-8.16,39.47l-7.45,37.16-7.21.2c-3.94.13-17,.23-28.93.26-24.72,0-24.66,0-29.91,2.57a16.34,16.34,0,0,0-5.9,4.34,24.07,24.07,0,0,0-6.3,10.55l-.75,2.47V525.3l.75,2.24a16.68,16.68,0,0,0,11.38,10.79,22.55,22.55,0,0,0,10.33-.33c5.45-1.88,9.25-6,11.06-11.88.52-1.64.59-5.39.65-42.65l.13-40.84,37.62-.1,37.61-.1,2.63-.76a34.7,34.7,0,0,0,9.74-4.6,36.27,36.27,0,0,0,7.41-8.06c3.08-5.13,2.79-3.91,12.46-52.19,9-44.79,9-44.89,9-49.17a27,27,0,0,0-4.52-16,29.41,29.41,0,0,0-16.6-11.84A26.25,26.25,0,0,0,537,299C534.35,299,531.85,299,531.39,299.08Z"/><path class="cls-6" d="M229.35,299.7a29.53,29.53,0,0,0-15.12,8.06c-5.87,5.85-8.46,12.76-8.06,21.54.16,3.45,1.28,9.47,8.88,47.52,4.79,24,9.06,44.53,9.42,45.71a34.49,34.49,0,0,0,5.67,10.2A29.18,29.18,0,0,0,244.6,442l2.63.75,37.81.1,37.78.13v40.39c0,39.17,0,40.45.65,42.92A22.62,22.62,0,0,0,325,530.5a18.46,18.46,0,0,0,7.44,7c2.59,1.25,2.69,1.29,6.92,1.38,3.67.1,4.56,0,6.33-.55a16.72,16.72,0,0,0,10.66-11.05l.72-2.31v-53.6c0-60.61.2-56-2.63-61.6-3.14-6.21-7.31-9.9-13.67-12.07l-2.72-.95-30-.23c-16.46-.13-30-.33-30.07-.4s-3.44-16.7-7.51-37-7.64-37.92-8-39.24a40.16,40.16,0,0,0-5.35-10.39A27.35,27.35,0,0,0,243,300.1,40.07,40.07,0,0,0,229.35,299.7Z"/><path class="cls-6" d="M578.91,337.13a12.49,12.49,0,0,0-8.62,9.27c-.26,1.09-3.67,17.66-7.58,36.83-7.84,38.51-8.1,39.86-9.25,42.92q-6.63,17.76-25,22.26c-1.9.46-5.81.56-29.91.73-27.58.19-27.71.19-29.48.92a12.85,12.85,0,0,0-5.32,3.75,15.17,15.17,0,0,0-1.93,14.6,13.47,13.47,0,0,0,6.72,6.77l2,.79h30.17c30.07,0,30.17,0,33.52-.75,17.8-4,32.2-15.33,40.47-32,3.5-7,3.87-8.52,12.79-51.86,7.41-36.08,8.19-40.29,8.06-42.36a12.53,12.53,0,0,0-7.28-10.88,9.84,9.84,0,0,0-5.15-1.32A15.21,15.21,0,0,0,578.91,337.13Z"/><path class="cls-6" d="M185,337.68a13.12,13.12,0,0,0-8.43,8.06c-1.28,3.69-1.28,3.65,7.41,46,9.32,45.39,9.74,47,14.69,55.48a59.17,59.17,0,0,0,38.54,28.32c3.08.66,4.13.69,32.37.82,21.77.07,29.64,0,31-.26a12.45,12.45,0,0,0,9.64-9.38c2-7.79-2.36-15.29-9.91-16.9-1.18-.23-9.67-.36-26.89-.36-14.89,0-26.1-.13-27.45-.33a37.14,37.14,0,0,1-15.71-6.05,37.85,37.85,0,0,1-11.41-14.5c-1.6-3.62-2.49-7.63-10.07-44.89-4.13-20.36-7.83-37.89-8.26-39a10.61,10.61,0,0,0-2.92-4.15c-1.87-1.91-2.46-2.3-4.39-2.89A13.66,13.66,0,0,0,185,337.68Z"/><polyline class="cls-7" points="398.68 187.94 418.29 207.6 423.36 207.84 519.24 303.99 509.09 319.1 493.48 395.73 481.28 396.49 377.14 292.06 377.11 254.15 352.46 229.43"/><rect class="cls-6" x="377.14" y="187.94" width="21.54" height="104.13"/><rect class="cls-6" x="377.11" y="183.19" width="21.6" height="70.9" transform="translate(606.55 -169.28) rotate(90)"/></g></g></g></svg>