<svg xmlns="http://www.w3.org/2000/svg" xmlns:xlink="http://www.w3.org/1999/xlink" viewBox="0 0 271.96 273.2"><defs><style>.cls-1{isolation:isolate;}.cls-2{fill:url(#linear-gradient);}.cls-3,.cls-4,.cls-6{mix-blend-mode:multiply;}.cls-3{fill:url(#linear-gradient-2);}.cls-4{fill:url(#linear-gradient-3);}.cls-5{fill:#fff;}.cls-6{fill:url(#linear-gradient-4);}</style><linearGradient id="linear-gradient" x1="135.98" y1="4.43" x2="135.98" y2="269.67" gradientUnits="userSpaceOnUse"><stop offset="0" stop-color="#4d9df2"/><stop offset="1" stop-color="#584bf8"/></linearGradient><linearGradient id="linear-gradient-2" x1="198.52" y1="143.7" x2="325.06" y2="270.24" gradientUnits="userSpaceOnUse"><stop offset="0" stop-color="gray"/><stop offset="1" stop-color="#fff" stop-opacity="0"/></linearGradient><linearGradient id="linear-gradient-3" x1="46.06" y1="106.59" x2="233.98" y2="294.52" gradientUnits="userSpaceOnUse"><stop offset="0" stop-color="#7f7f7f"/><stop offset="1" stop-color="#fff"/></linearGradient><linearGradient id="linear-gradient-4" x1="128.79" y1="50.74" x2="271.11" y2="193.07" gradientUnits="userSpaceOnUse"><stop offset="0" stop-color="gray"/><stop offset="1" stop-color="#fff"/></linearGradient></defs><title>SplashImage</title><g class="cls-1"><g id="Layer_2" data-name="Layer 2"><g id="Layer_1-2" data-name="Layer 1"><rect class="cls-2" width="271.96" height="272.72" rx="52"/><polyline class="cls-3" points="271.96 105 271.96 272.72 211.58 272.5 157.64 218.41 151.61 212.69 151.21 153.63 158.08 144.42 193.09 142.82 201.36 102.2 216.14 91.56 213.27 87.92 228.33 57.62"/><polyline class="cls-4" points="212.28 273.2 151.61 212.69 158.08 144.42 62.78 57.62 46.56 86.96 50.2 92.78 43.23 121.44 37.76 115.8 43.74 178.46 138.59 272.72"/><path class="cls-5" d="M214.92,54.26a17.6,17.6,0,0,0-11,7A21.32,21.32,0,0,0,201.19,67a19.59,19.59,0,0,0-.28,7.17,17.34,17.34,0,0,0,12.36,13.77,20.29,20.29,0,0,0,7.34.42,17.58,17.58,0,0,0,13.91-12.46,12.51,12.51,0,0,0,.46-4.54,13.14,13.14,0,0,0-.38-4.3A17.4,17.4,0,0,0,214.92,54.26Z"/><path class="cls-5" d="M51,54.43a17.36,17.36,0,0,0-13.7,20.92A17.15,17.15,0,0,0,46.56,87,13.42,13.42,0,0,0,54,88.58,13.45,13.45,0,0,0,61.51,87a17.28,17.28,0,0,0,9.38-12A21.69,21.69,0,0,0,71,68.38a17.46,17.46,0,0,0-12.85-13.7A21.19,21.19,0,0,0,51,54.43Z"/><path class="cls-5" d="M213.18,91.58a14.69,14.69,0,0,0-10.81,8.18,19.63,19.63,0,0,0-1,2.44c-.21.66-2.15,10.08-4.33,20.92l-3.94,19.7-3.83.1c-2.08.07-9,.12-15.33.14-13.11,0-13.07,0-15.85,1.36a8.67,8.67,0,0,0-3.13,2.3,12.77,12.77,0,0,0-3.34,5.6l-.4,1.31V211.5l.4,1.19a8.84,8.84,0,0,0,6,5.72,12,12,0,0,0,5.48-.18,9.16,9.16,0,0,0,5.86-6.29c.27-.87.31-2.86.34-22.61l.07-21.65,19.94-.06,19.94-.05,1.39-.4a18.45,18.45,0,0,0,5.17-2.44,19.74,19.74,0,0,0,3.93-4.27c1.63-2.72,1.47-2.07,6.6-27.67,4.77-23.74,4.77-23.79,4.78-26.06a14.32,14.32,0,0,0-2.4-8.47A15.54,15.54,0,0,0,220,92a13.54,13.54,0,0,0-3.81-.41C214.75,91.53,213.43,91.55,213.18,91.58Z"/><path class="cls-5" d="M53.07,91.91a15.77,15.77,0,0,0-8,4.27,14.3,14.3,0,0,0-4.28,11.42c.09,1.83.68,5,4.72,25.19,2.53,12.71,4.79,23.61,5,24.24a18.47,18.47,0,0,0,3,5.4,15.43,15.43,0,0,0,7.67,4.9l1.39.4,20,.05,20,.07v21.41c0,20.76,0,21.44.35,22.75a12.35,12.35,0,0,0,.81,2.25,9.85,9.85,0,0,0,4,3.71c1.37.66,1.43.68,3.67.73a8,8,0,0,0,3.35-.29,8.85,8.85,0,0,0,5.65-5.86l.39-1.22V182.91c0-32.13.1-29.67-1.39-32.65a11.93,11.93,0,0,0-7.25-6.4l-1.45-.5-15.89-.12c-8.72-.07-15.9-.18-15.94-.21s-1.82-8.86-4-19.62-4-20.1-4.26-20.79a21,21,0,0,0-2.83-5.51,14.5,14.5,0,0,0-7.51-5A21.57,21.57,0,0,0,53.07,91.91Z"/><path class="cls-5" d="M238.37,111.75a6.65,6.65,0,0,0-4.57,4.92c-.14.57-1.94,9.36-4,19.52-4.16,20.42-4.3,21.13-4.91,22.75a18,18,0,0,1-13.23,11.81c-1,.24-3.07.29-15.85.38-14.62.1-14.69.1-15.63.49a6.7,6.7,0,0,0-2.81,2,8,8,0,0,0-1,7.74,7.21,7.21,0,0,0,3.56,3.6l1.05.41h16c15.94,0,16,0,17.77-.4A31.16,31.16,0,0,0,236.15,168c1.86-3.73,2-4.52,6.78-27.49,3.93-19.13,4.35-21.36,4.28-22.46a6.69,6.69,0,0,0-3.86-5.77,5.21,5.21,0,0,0-2.73-.69A8.19,8.19,0,0,0,238.37,111.75Z"/><path class="cls-5" d="M29.54,112.05a6.94,6.94,0,0,0-4.47,4.27c-.68,2-.68,1.93,3.93,24.41,4.93,24.05,5.16,24.92,7.79,29.41a31.34,31.34,0,0,0,20.42,15c1.64.35,2.19.37,17.16.44,11.54,0,15.72,0,16.43-.14a6.57,6.57,0,0,0,5.11-5,7.09,7.09,0,0,0-5.25-9c-.63-.12-5.13-.19-14.26-.19-7.89,0-13.83-.07-14.55-.17a19.75,19.75,0,0,1-8.32-3.21,19.92,19.92,0,0,1-6.05-7.69c-.85-1.92-1.32-4-5.34-23.8C40,125.66,38,116.37,37.76,115.8a5.55,5.55,0,0,0-1.55-2.2,4.34,4.34,0,0,0-2.33-1.53A7.15,7.15,0,0,0,29.54,112.05Z"/><polyline class="cls-6" points="142.83 32.67 153.23 43.09 155.92 43.22 206.74 94.19 201.36 102.2 193.09 142.82 186.62 143.22 131.42 87.87 131.4 67.77 118.33 54.67"/><rect class="cls-5" x="131.42" y="32.67" width="11.42" height="55.2"/><rect class="cls-5" x="131.4" y="30.15" width="11.45" height="37.58" transform="translate(186.07 -88.18) rotate(90)"/></g></g></g></svg>